SplineFontDB: 3.2
FontName: DroidobeshDepot-Regular
FullName: Droidobesh Depot
FamilyName: Droidobesh Depot
Weight: Regular
Copyright: CC-0 public domain, Vamplify
Version: 001.001
ItalicAngle: 0
UnderlinePosition: -100
UnderlineWidth: 50
Ascent: 800
Descent: 200
InvalidEm: 0
sfntRevision: 0x00010000
LayerCount: 2
Layer: 0 0 "Back" 1
Layer: 1 0 "Fore" 0
XUID: [1021 764 -1482030943 16607]
StyleMap: 0x0040
FSType: 8
OS2Version: 3
OS2_WeightWidthSlopeOnly: 0
OS2_UseTypoMetrics: 0
CreationTime: 1609925318
ModificationTime: 1610074568
PfmFamily: 17
TTFWeight: 400
TTFWidth: 5
LineGap: 0
VLineGap: 0
Panose: 2 0 5 3 0 0 0 0 0 0
OS2TypoAscent: 800
OS2TypoAOffset: 0
OS2TypoDescent: -200
OS2TypoDOffset: 0
OS2TypoLinegap: 90
OS2WinAscent: 920
OS2WinAOffset: 0
OS2WinDescent: 80
OS2WinDOffset: 0
HheadAscent: 711
HheadAOffset: 0
HheadDescent: -80
HheadDOffset: 0
OS2SubXSize: 650
OS2SubYSize: 600
OS2SubXOff: 0
OS2SubYOff: 75
OS2SupXSize: 650
OS2SupYSize: 600
OS2SupXOff: 0
OS2SupYOff: 350
OS2StrikeYSize: 50
OS2StrikeYPos: 381
OS2CapHeight: 650
OS2XHeight: 636
OS2Vendor: 'CLGR'
OS2CodePages: 00000001.00000000
OS2UnicodeRanges: 00000003.00000000.00000000.00000000
Lookup: 258 0 0 "'kern' Horizontal Kerning in Latin lookup 0" { "'kern' Horizontal Kerning in Latin lookup 0-1" [150,0,6] } ['kern' ('DFLT' <'dflt' > 'latn' <'dflt' > ) ]
MarkAttachClasses: 1
DEI: 91125
KernClass2: 27 30 "'kern' Horizontal Kerning in Latin lookup 0-1"
 6 exclam
 20 quotedbl quotesingle
 12 comma period
 6 hyphen
 5 colon
 8 question
 3 A a
 3 B b
 3 C c
 7 D J d j
 7 E V e v
 3 F f
 7 G Y g y
 3 H h
 3 M m
 3 O o
 3 P p
 3 Q q
 10 dollar R r
 3 T t
 3 X x
 8 two five
 4 four
 5 seven
 5 eight
 8 zero one
 6 exclam
 20 quotedbl quotesingle
 12 comma period
 6 hyphen
 5 colon
 20 question H K S h k s
 3 B b
 3 C c
 3 D d
 3 E e
 3 F f
 3 I i
 3 J j
 3 L l
 3 M m
 3 O o
 3 P p
 3 Q q
 3 R r
 3 T t
 3 V v
 3 X x
 3 Y y
 3 Z z
 8 zero one
 3 two
 5 three
 9 four five
 3 six

StartChar: .notdef
Encoding: 65536 -1 0
Width: 415
Flags: W
HStem: 0 33<108 307> 633 33<108 307>
VStem: 75 33<33 633> 307 33<33 633>
LayerCount: 2
Fore
SplineSet
75 0 m 1
 75 666 l 1
 340 666 l 1
 340 0 l 1
 75 0 l 1
108 33 m 1
 307 33 l 1
 307 633 l 1
 108 633 l 1
 108 33 l 1
EndSplineSet
Validated: 1
EndChar

StartChar: exclam
Encoding: 33 33 5
Width: 632
Flags: W
LayerCount: 2
Fore
SplineSet
533.112304688 261.727539062 m 2
 145.549804688 105.142578125 l 2
 138.080406091 102.124599565 130.334471068 100.690290952 122.687988005 100.690290952 c 0
 98.0626763466 100.690290952 74.4688269795 115.56616922 64.46484375 140.329101562 c 0
 61.4337660426 147.830920122 60.000135548 155.611680859 60.000135548 163.285438008 c 0
 60.000135548 187.858621497 74.7010373097 211.334556254 98.7236328125 221.040039062 c 2
 486.287109375 377.625 l 2
 494.14742788 380.801060685 502.242370944 382.300028463 510.178120349 382.300028463 c 0
 535.004957819 382.300028463 558.273704798 367.629045628 567.92578125 343.741210938 c 0
 571.087242534 335.915622861 572.586612091 327.857549782 572.586612091 319.950319289 c 0
 572.586612091 295.066836144 557.738123976 271.677170413 533.112304688 261.727539062 c 2
533.112304688 531.727539062 m 2
 145.549804688 375.142578125 l 2
 138.080406091 372.124599565 130.334471068 370.690290952 122.687988005 370.690290952 c 0
 98.0626763466 370.690290952 74.4688269795 385.56616922 64.46484375 410.329101562 c 0
 61.4337660426 417.830920122 60.000135548 425.611680859 60.000135548 433.285438008 c 0
 60.000135548 457.858621497 74.7010373097 481.334556254 98.7236328125 491.040039062 c 2
 486.287109375 647.625 l 2
 494.14742788 650.801060685 502.242370944 652.300028463 510.178120349 652.300028463 c 0
 535.004957819 652.300028463 558.273704798 637.629045628 567.92578125 613.741210938 c 0
 571.087242534 605.915622861 572.586612091 597.857549782 572.586612091 589.950319289 c 0
 572.586612091 565.066836144 557.738123976 541.677170413 533.112304688 531.727539062 c 2
EndSplineSet
Validated: 524289
EndChar

StartChar: quotedbl
Encoding: 34 34 6
Width: 535
Flags: W
HStem: 528 270.278
LayerCount: 2
Fore
SplineSet
322.235351562 528 m 4
 311.235351562 528 300.235351562 531 290.235351562 538 c 4
 270.635993619 549.759614766 259.99978175 570.055559128 259.99978175 591.08019272 c 0
 259.99978175 602.237174953 262.994966329 613.599357944 269.235351562 624 c 6
 360.235351562 769 l 6
 371.950930088 787.875098736 392.13902591 798.277680176 412.803659003 798.277680176 c 0
 423.888494777 798.277680176 435.110450299 795.284421474 445.235351562 789 c 4
 464.834709506 777.240385234 475.470921375 756.517624392 475.470921375 735.475890737 c 0
 475.470921375 724.309834144 472.475736796 713.053953988 466.235351562 703 c 6
 375.235351562 558 l 6
 364.235351562 539 343.235351562 528 322.235351562 528 c 4
122.235351562 528 m 0
 111.235351562 528 100.235351562 531 90.2353515625 538 c 0
 70.6359936187 549.759614766 59.9997817505 570.055559128 59.9997817505 591.08019272 c 0
 59.9997817505 602.237174953 62.9949663288 613.599357944 69.2353515625 624 c 2
 160.235351562 769 l 2
 171.950930088 787.875098736 192.13902591 798.277680176 212.803659003 798.277680176 c 0
 223.888494777 798.277680176 235.110450299 795.284421474 245.235351562 789 c 0
 264.834709506 777.240385234 275.470921375 756.517624392 275.470921375 735.475890737 c 0
 275.470921375 724.309834144 272.475736796 713.053953988 266.235351562 703 c 2
 175.235351562 558 l 2
 164.235351562 539 143.235351562 528 122.235351562 528 c 0
EndSplineSet
Validated: 524289
EndChar

StartChar: ampersand
Encoding: 38 38 7
Width: 793
Flags: W
HStem: 0 125<75.4141 523.921> 265 125<75.4141 523.921> 529 125<76.19 599.829>
VStem: 608.214 125<15.2956 520.615>
LayerCount: 2
Fore
SplineSet
476.213867188 265 m 2
 122.213867188 265 l 2
 88.2138671875 265 60.2138671875 293 60.2138671875 327 c 0
 60.2138671875 362 88.2138671875 390 122.213867188 390 c 2
 476.213867188 390 l 2
 511.213867188 390 539.213867188 362 539.213867188 327 c 0
 539.213867188 293 511.213867188 265 476.213867188 265 c 2
666.213867188 0 m 0
 633.213867188 2 608.213867188 31 608.213867188 65 c 2
 608.213867188 480 l 2
 608.213867188 507 586.213867188 529 559.213867188 529 c 2
 124.213867188 529 l 2
 91.2138671875 529 62.2138671875 554 60.2138671875 587 c 0
 60.0705684197 588.76735147 60.0002813385 590.518731633 60.0002813385 592.251633853 c 0
 60.0002813385 626.7975269 87.9334524013 654 122.213867188 654 c 2
 671.213867188 654 l 2
 705.213867188 654 733.213867188 626 733.213867188 592 c 2
 733.213867188 62 l 2
 733.213867188 28.1441128362 705.143146478 -0.0976301856548 669.819096028 -0.0976301856548 c 0
 668.625368646 -0.0976301856548 667.4233579 -0.0653778763541 666.213867188 0 c 0
476.213867188 0 m 2
 122.213867188 0 l 2
 88.2138671875 0 60.2138671875 28 60.2138671875 62 c 0
 60.2138671875 97 88.2138671875 125 122.213867188 125 c 2
 476.213867188 125 l 2
 511.213867188 125 539.213867188 97 539.213867188 62 c 0
 539.213867188 28 511.213867188 0 476.213867188 0 c 2
EndSplineSet
Validated: 524289
EndChar

StartChar: quotesingle
Encoding: 39 39 8
Width: 335
Flags: W
HStem: 528 270.278
VStem: 59.9998 215.471
LayerCount: 2
Fore
SplineSet
122.235351562 528 m 0
 111.235351562 528 100.235351562 531 90.2353515625 538 c 0
 70.6359936187 549.759614766 59.9997817505 570.055559128 59.9997817505 591.08019272 c 0
 59.9997817505 602.237174953 62.9949663288 613.599357944 69.2353515625 624 c 2
 160.235351562 769 l 2
 171.950930088 787.875098736 192.13902591 798.277680176 212.803659003 798.277680176 c 0
 223.888494777 798.277680176 235.110450299 795.284421474 245.235351562 789 c 0
 264.834709506 777.240385234 275.470921375 756.517624392 275.470921375 735.475890737 c 0
 275.470921375 724.309834144 272.475736796 713.053953988 266.235351562 703 c 2
 175.235351562 558 l 2
 164.235351562 539 143.235351562 528 122.235351562 528 c 0
EndSplineSet
Validated: 524289
EndChar

StartChar: comma
Encoding: 44 44 9
Width: 245
Flags: W
HStem: -0.0647309 271.606<89.4872 169.384>
VStem: 60.5137 124.868<15.4441 255.691>
LayerCount: 2
Fore
SplineSet
89.048828125 262.456054688 m 0
 98.3910206683 268.29391649 108.357839946 271.54109982 119.360262532 271.54109982 c 0
 120.343140987 271.54109982 121.334283938 271.515186098 122.333984375 271.462890625 c 0
 156.465820312 271.56640625 185.083007812 244.639648438 184.8671875 209.129882812 c 2
 185.381835938 62.4697265625 l 2
 185.483275694 28.703812842 157.971168864 -0.0647308525513 122.862971997 -0.0647308525513 c 0
 88.8138829156 -0.0647308525513 60.6160257415 28.1993409025 60.513671875 62.26953125 c 2
 60 208.928710938 l 2
 60.1083984375 231.401367188 72.087890625 251.858398438 89.048828125 262.456054688 c 0
EndSplineSet
Validated: 524321
EndChar

StartChar: hyphen
Encoding: 45 45 10
Width: 663
Flags: W
HStem: 579 125<75.2003 587.707>
LayerCount: 2
Fore
SplineSet
540 579 m 6
 122 579 l 6
 88 579 60 607 60 642 c 4
 60 676 88 704 122 704 c 6
 540 704 l 6
 575 704 603 676 603 642 c 4
 603 607 575 579 540 579 c 6
EndSplineSet
Validated: 1
EndChar

StartChar: period
Encoding: 46 46 11
Width: 425
Flags: W
HStem: -1.06473 271.606<89.4872 169.384 269.487 349.384>
VStem: 60.5137 124.868<14.4441 254.691> 240.514 124.868<14.4441 254.691>
LayerCount: 2
Fore
SplineSet
269.048828125 261.456054688 m 4
 278.391020668 267.29391649 288.357839946 270.54109982 299.360262532 270.54109982 c 0
 300.343140987 270.54109982 301.334283938 270.515186098 302.333984375 270.462890625 c 4
 336.465820312 270.56640625 365.083007812 243.639648438 364.8671875 208.129882812 c 6
 365.381835938 61.4697265625 l 6
 365.483275694 27.703812842 337.971168864 -1.06473085255 302.862971997 -1.06473085255 c 0
 268.813882916 -1.06473085255 240.616025741 27.1993409025 240.513671875 61.26953125 c 6
 240 207.928710938 l 6
 240.108398438 230.401367188 252.087890625 250.858398438 269.048828125 261.456054688 c 4
89.048828125 261.456054688 m 4
 98.3910206683 267.29391649 108.357839946 270.54109982 119.360262532 270.54109982 c 0
 120.343140987 270.54109982 121.334283938 270.515186098 122.333984375 270.462890625 c 4
 156.465820312 270.56640625 185.083007812 243.639648438 184.8671875 208.129882812 c 6
 185.381835938 61.4697265625 l 6
 185.483275694 27.703812842 157.971168864 -1.06473085255 122.862971997 -1.06473085255 c 0
 88.8138829156 -1.06473085255 60.6160257415 27.1993409025 60.513671875 61.26953125 c 6
 60 207.928710938 l 6
 60.1083984375 230.401367188 72.087890625 250.858398438 89.048828125 261.456054688 c 4
EndSplineSet
Validated: 524321
EndChar

StartChar: zero
Encoding: 48 48 12
Width: 335
Flags: W
HStem: 478 175<90.5419 244.458>
VStem: 80 175<488.609 642.752>
LayerCount: 2
Fore
SplineSet
132 478 m 2
 104 478 80 502 80 531 c 2
 80 601 l 2
 80 630 104 653 132 653 c 2
 203 653 l 2
 231 653 255 630 255 601 c 2
 255 531 l 2
 255 502 231 478 203 478 c 2
 132 478 l 2
EndSplineSet
Validated: 1
EndChar

StartChar: one
Encoding: 49 49 13
Width: 574
Flags: W
HStem: 478 175<90.5419 244.458 329.542 483.458>
VStem: 80 175<488.609 642.752> 319 175<488.609 642.752>
LayerCount: 2
Fore
SplineSet
132 478 m 2
 104 478 80 502 80 531 c 2
 80 601 l 2
 80 630 104 653 132 653 c 2
 203 653 l 2
 231 653 255 630 255 601 c 2
 255 531 l 2
 255 502 231 478 203 478 c 2
 132 478 l 2
371 478 m 2
 343 478 319 502 319 531 c 2
 319 601 l 2
 319 630 343 653 371 653 c 2
 442 653 l 2
 470 653 494 630 494 601 c 2
 494 531 l 2
 494 502 470 478 442 478 c 2
 371 478 l 2
EndSplineSet
Validated: 1
EndChar

StartChar: two
Encoding: 50 50 14
Width: 574
Flags: W
HStem: 239 175<329.542 483.458> 478 175<90.5419 244.458 329.542 483.458>
VStem: 80 175<488.609 642.752> 319 175<249.542 403.458 488.609 642.752>
LayerCount: 2
Fore
SplineSet
132 478 m 2
 104 478 80 502 80 531 c 2
 80 601 l 2
 80 630 104 653 132 653 c 2
 203 653 l 2
 231 653 255 630 255 601 c 2
 255 531 l 2
 255 502 231 478 203 478 c 2
 132 478 l 2
371 478 m 2
 343 478 319 502 319 531 c 2
 319 601 l 2
 319 630 343 653 371 653 c 2
 442 653 l 2
 470 653 494 630 494 601 c 2
 494 531 l 2
 494 502 470 478 442 478 c 2
 371 478 l 2
371 239 m 2
 343 239 319 263 319 291 c 2
 319 362 l 2
 319 390 343 414 371 414 c 2
 442 414 l 2
 470 414 494 390 494 362 c 2
 494 291 l 2
 494 263 470 239 442 239 c 2
 371 239 l 2
EndSplineSet
Validated: 1
EndChar

StartChar: three
Encoding: 51 51 15
Width: 574
Flags: W
HStem: 0 175<329.542 483.458> 239 175<329.542 483.458> 478 175<90.5419 244.458 329.542 483.458>
VStem: 80 175<488.609 642.752> 319 175<10.2479 164.391 249.542 403.458 488.609 642.752>
CounterMasks: 1 e0
LayerCount: 2
Fore
SplineSet
132 478 m 2
 104 478 80 502 80 531 c 2
 80 601 l 2
 80 630 104 653 132 653 c 2
 203 653 l 2
 231 653 255 630 255 601 c 2
 255 531 l 2
 255 502 231 478 203 478 c 2
 132 478 l 2
371 478 m 2
 343 478 319 502 319 531 c 2
 319 601 l 2
 319 630 343 653 371 653 c 2
 442 653 l 2
 470 653 494 630 494 601 c 2
 494 531 l 2
 494 502 470 478 442 478 c 2
 371 478 l 2
371 239 m 2
 343 239 319 263 319 291 c 2
 319 362 l 2
 319 390 343 414 371 414 c 2
 442 414 l 2
 470 414 494 390 494 362 c 2
 494 291 l 2
 494 263 470 239 442 239 c 2
 371 239 l 2
371 0 m 2
 343 0 319 23 319 52 c 2
 319 122 l 2
 319 151 343 175 371 175 c 2
 442 175 l 2
 470 175 494 151 494 122 c 2
 494 52 l 2
 494 23 470 0 442 0 c 2
 371 0 l 2
EndSplineSet
Validated: 1
EndChar

StartChar: four
Encoding: 52 52 16
Width: 573
Flags: W
HStem: 478 175<329.248 482.752>
VStem: 80 174<248.794 643.485> 319 174<487.854 643.485>
LayerCount: 2
Fore
SplineSet
132 239 m 2
 103 239 80 263 80 291 c 2
 80 601 l 2
 80 630 103 653 132 653 c 2
 202 653 l 2
 231 653 254 630 254 601 c 2
 254 291 l 2
 254 263 231 239 202 239 c 2
 132 239 l 2
371 478 m 2
 342 478 319 502 319 531 c 2
 319 601 l 2
 319 630 342 653 371 653 c 2
 441 653 l 2
 470 653 493 630 493 601 c 2
 493 531 l 2
 493 502 470 478 441 478 c 2
 371 478 l 2
EndSplineSet
Validated: 1
EndChar

StartChar: five
Encoding: 53 53 17
Width: 573
Flags: W
HStem: 239 175<329.248 482.752> 478 175<329.248 482.752>
VStem: 80 174<248.794 643.485> 319 174<248.794 404.206 487.854 643.485>
LayerCount: 2
Fore
SplineSet
132 239 m 2
 103 239 80 263 80 291 c 2
 80 601 l 2
 80 630 103 653 132 653 c 2
 202 653 l 2
 231 653 254 630 254 601 c 2
 254 291 l 2
 254 263 231 239 202 239 c 2
 132 239 l 2
371 478 m 2
 342 478 319 502 319 531 c 2
 319 601 l 2
 319 630 342 653 371 653 c 2
 441 653 l 2
 470 653 493 630 493 601 c 2
 493 531 l 2
 493 502 470 478 441 478 c 2
 371 478 l 2
371 239 m 2
 342 239 319 263 319 291 c 2
 319 362 l 2
 319 390 342 414 371 414 c 2
 441 414 l 2
 470 414 493 390 493 362 c 2
 493 291 l 2
 493 263 470 239 441 239 c 2
 371 239 l 2
EndSplineSet
Validated: 1
EndChar

StartChar: six
Encoding: 54 54 18
Width: 573
Flags: W
HStem: 0 175<329.248 482.752> 239 175<329.248 482.752> 478 175<329.248 482.752>
VStem: 80 174<248.794 643.485> 319 174<9.51529 165.146 248.794 404.206 487.854 643.485>
CounterMasks: 1 e0
LayerCount: 2
Fore
SplineSet
132 239 m 2
 103 239 80 263 80 291 c 2
 80 601 l 2
 80 630 103 653 132 653 c 2
 202 653 l 2
 231 653 254 630 254 601 c 2
 254 291 l 2
 254 263 231 239 202 239 c 2
 132 239 l 2
371 478 m 2
 342 478 319 502 319 531 c 2
 319 601 l 2
 319 630 342 653 371 653 c 2
 441 653 l 2
 470 653 493 630 493 601 c 2
 493 531 l 2
 493 502 470 478 441 478 c 2
 371 478 l 2
371 239 m 2
 342 239 319 263 319 291 c 2
 319 362 l 2
 319 390 342 414 371 414 c 2
 441 414 l 2
 470 414 493 390 493 362 c 2
 493 291 l 2
 493 263 470 239 441 239 c 2
 371 239 l 2
371 0 m 2
 342 0 319 23 319 52 c 2
 319 122 l 2
 319 151 342 175 371 175 c 2
 441 175 l 2
 470 175 493 151 493 122 c 2
 493 52 l 2
 493 23 470 0 441 0 c 2
 371 0 l 2
EndSplineSet
Validated: 1
EndChar

StartChar: seven
Encoding: 55 55 19
Width: 574
Flags: W
HStem: 0 21G<117.5 216.5> 478 175<329.542 483.458>
VStem: 80 175<10.2479 642.752> 319 175<488.609 642.752>
LayerCount: 2
Fore
SplineSet
132 0 m 2
 103 0 80 23 80 52 c 2
 80 601 l 2
 80 630 103 653 132 653 c 2
 202 653 l 2
 231 653 255 630 255 601 c 2
 255 52 l 2
 255 23 231 0 202 0 c 2
 132 0 l 2
371 478 m 2
 343 478 319 502 319 531 c 2
 319 601 l 2
 319 630 343 653 371 653 c 2
 442 653 l 2
 470 653 494 630 494 601 c 2
 494 531 l 2
 494 502 470 478 442 478 c 2
 371 478 l 2
EndSplineSet
Validated: 1
EndChar

StartChar: eight
Encoding: 56 56 20
Width: 574
Flags: W
HStem: 0 21G<117.5 216.5> 239 175<329.542 483.458> 478 175<329.542 483.458>
VStem: 80 175<10.2479 642.752> 319 175<249.542 403.458 488.609 642.752>
LayerCount: 2
Fore
SplineSet
132 0 m 2
 103 0 80 23 80 52 c 2
 80 601 l 2
 80 630 103 653 132 653 c 2
 202 653 l 2
 231 653 255 630 255 601 c 2
 255 52 l 2
 255 23 231 0 202 0 c 2
 132 0 l 2
371 478 m 2
 343 478 319 502 319 531 c 2
 319 601 l 2
 319 630 343 653 371 653 c 2
 442 653 l 2
 470 653 494 630 494 601 c 2
 494 531 l 2
 494 502 470 478 442 478 c 2
 371 478 l 2
371 239 m 2
 343 239 319 263 319 291 c 2
 319 362 l 2
 319 390 343 414 371 414 c 2
 442 414 l 2
 470 414 494 390 494 362 c 2
 494 291 l 2
 494 263 470 239 442 239 c 2
 371 239 l 2
EndSplineSet
Validated: 1
EndChar

StartChar: nine
Encoding: 57 57 21
Width: 574
Flags: W
HStem: 0 175<329.542 483.458> 239 175<329.542 483.458> 478 175<329.542 483.458>
VStem: 80 175<10.2479 642.752> 319 175<10.2479 164.391 249.542 403.458 488.609 642.752>
CounterMasks: 1 e0
LayerCount: 2
Fore
SplineSet
132 0 m 2
 103 0 80 23 80 52 c 2
 80 601 l 2
 80 630 103 653 132 653 c 2
 202 653 l 2
 231 653 255 630 255 601 c 2
 255 52 l 2
 255 23 231 0 202 0 c 2
 132 0 l 2
371 478 m 2
 343 478 319 502 319 531 c 2
 319 601 l 2
 319 630 343 653 371 653 c 2
 442 653 l 2
 470 653 494 630 494 601 c 2
 494 531 l 2
 494 502 470 478 442 478 c 2
 371 478 l 2
371 239 m 2
 343 239 319 263 319 291 c 2
 319 362 l 2
 319 390 343 414 371 414 c 2
 442 414 l 2
 470 414 494 390 494 362 c 2
 494 291 l 2
 494 263 470 239 442 239 c 2
 371 239 l 2
371 0 m 2
 343 0 319 23 319 52 c 2
 319 122 l 2
 319 151 343 175 371 175 c 2
 442 175 l 2
 470 175 494 151 494 122 c 2
 494 52 l 2
 494 23 470 0 442 0 c 2
 371 0 l 2
EndSplineSet
Validated: 1
EndChar

StartChar: question
Encoding: 63 63 22
Width: 729
Flags: W
HStem: 0 125<76.19 223.026> 529 125<76.19 535.829>
VStem: 544.214 125<403.766 520.615>
LayerCount: 2
Fore
SplineSet
124.213867188 0 m 2
 91.2138671875 0 62.2138671875 25 60.2138671875 58 c 0
 60.0705684197 59.7673514698 60.0002813385 61.5187316331 60.0002813385 63.251633853 c 0
 60.0002813385 97.7975269002 87.9334524013 125 122.213867188 125 c 2
 181.213867188 125 l 6
 193.213867188 125 204.213867188 129 213.213867188 137 c 6
 527.213867188 408 l 6
 538.213867188 417 544.213867188 431 544.213867188 445 c 6
 544.213867188 480 l 6
 544.213867188 507 522.213867188 529 495.213867188 529 c 6
 122.213867188 529 l 2
 87.9334524013 529 60.0002813385 556.2024731 60.0002813385 590.748366147 c 0
 60.0002813385 592.481268367 60.0705684197 594.23264853 60.2138671875 596 c 0
 62.2138671875 629 91.2138671875 654 124.213867188 654 c 2
 607.213867188 654 l 6
 641.213867188 654 669.213867188 626 669.213867188 592 c 6
 669.213867188 394 l 6
 669.213867188 376 661.213867188 358 647.213867188 347 c 6
 263.213867188 15 l 6
 252.213867188 5 237.213867188 0 223.213867188 0 c 6
 124.213867188 0 l 2
EndSplineSet
Validated: 524289
EndChar

StartChar: A
Encoding: 65 65 23
Width: 886
Flags: W
HStem: -0.0976302 21G<121.929 139.72> 0 21G<756 772> 243 125<193.438 518.469> 634.106 19.992G<106.246 124.069 755.355 771.268> 634.106 19.992G<106.246 124.069 755.355 771.268>
VStem: 60 125<16.2866 234.615 376.385 637.713>
LayerCount: 2
Fore
SplineSet
629 371 m 0x24
 614 371 600 376 588 386 c 0
 573.648759377 398.14335745 566.304969154 415.466134762 566.304969154 433.091404512 c 0
 566.304969154 447.397660791 571.14335745 461.903211416 581 474 c 2
 716 632 l 2
 728.783507579 646.450921611 746.509716588 654.105628756 764.199369487 654.105628756 c 0
 778.336819921 654.105628756 792.450921611 649.216492421 804 639 c 0
 818.847310746 626.902191244 826.437250747 609.361354428 826.437250747 591.698597636 c 0
 826.437250747 577.241434427 821.352290846 562.702589652 811 551 c 2
 676 393 l 2
 664 378 646 371 629 371 c 0x24
808 106 m 2
 820.372488798 94.1224107541 826.376912867 78.3260124445 826.376912867 62.4896387704 c 0
 826.376912867 46.3268449107 820.122410754 30.1224107541 808 18 c 0
 796 6 780 0 764 0 c 0x74
 748 0 732 6 719 19 c 2
 512 229 l 2
 502 238 490 243 477 243 c 2
 235 243 l 2
 207 243 185 221 185 194 c 2
 185 62 l 2
 185 28.1441128362 156.92927929 -0.0976301856548 122.510332795 -0.0976301856548 c 0xa4
 121.347192149 -0.0976301856548 120.176801774 -0.0653778763541 119 0 c 0
 86 2 60 31 60 65 c 2
 60 592 l 2
 60 625.855887164 89.0064114001 654.097630186 123.486531365 654.097630186 c 0x74
 124.651739285 654.097630186 125.823198226 654.065377876 127 654 c 0
 160 652 185 623 185 589 c 2
 185 417 l 2
 185 390 207 368 235 368 c 2
 523 368 l 2
 540 368 556 362 568 350 c 2
 808 106 l 2
EndSplineSet
Validated: 524289
EndChar

StartChar: B
Encoding: 66 66 24
Width: 846
Flags: W
HStem: 0 125<270.223 770.122> 265 125<272.298 574.804> 529 125<75.2908 576.035>
VStem: 257.098 333<280.2 374.707>
LayerCount: 2
Fore
SplineSet
724.09765625 386 m 0
 708.09765625 386 692.09765625 392 680.09765625 404 c 2
 569.09765625 515 l 2
 560.09765625 524 547.09765625 529 534.09765625 529 c 2
 125.09765625 529 l 2
 90.3410006679 529 60.0000260643 555.016703159 60.0000260643 590.60522884 c 0
 60.0000260643 625.92927929 88.2417690862 654 122.09765625 654 c 2
 581.09765625 654 l 2
 597.09765625 654 613.09765625 647 625.09765625 636 c 2
 767.09765625 494 l 2
 779.464431233 481.117942726 785.98985775 463.987632021 785.98985775 446.987167406 c 0
 785.98985775 430.99510557 780.215598976 415.117942726 768.09765625 403 c 0
 756.09765625 392 740.09765625 386 724.09765625 386 c 0
527.09765625 265 m 2
 319.09765625 265 l 2
 285.09765625 265 257.09765625 293 257.09765625 327 c 0
 257.09765625 362 285.09765625 390 319.09765625 390 c 2
 527.09765625 390 l 2
 562.09765625 390 590.09765625 362 590.09765625 327 c 0
 590.09765625 293 562.09765625 265 527.09765625 265 c 2
722.09765625 0 m 2
 266.09765625 0 l 2
 249.09765625 0 233.09765625 7 222.09765625 18 c 2
 80.09765625 160 l 2
 67.0580935349 173.039562715 60.2175483751 190.2118038 60.2175483751 207.186411924 c 0
 60.2175483751 221.45446154 65.0505887388 235.582877828 75.09765625 247 c 0
 87.5591947115 261.019230769 104.873543824 268.028846154 122.281216218 268.028846154 c 0
 138.399431398 268.028846154 154.59765625 262.019230769 167.09765625 250 c 2
 277.09765625 139 l 2
 287.09765625 130 299.09765625 125 312.09765625 125 c 2
 724.09765625 125 l 2
 758.378071036 125 786.311242099 97.7975269002 786.311242099 63.251633853 c 0
 786.311242099 61.5187316331 786.240955018 59.7673514698 786.09765625 58 c 0
 784.09765625 25 755.09765625 0 722.09765625 0 c 2
EndSplineSet
Validated: 524289
EndChar

StartChar: C
Encoding: 67 67 25
Width: 651
Flags: W
HStem: -0.0976302 21G<527.929 545.72> 134 125<75.2933 384.8> 309 125<193.385 457.615> 634.098 20G<121.929 139.72> 634.098 20G<121.929 139.72>
VStem: 60 340<149.2 243.707> 60 125<442.385 637.812> 466 125<16.1882 300.615>
LayerCount: 2
Fore
SplineSet
525 0 m 0xf3
 491 2 466 31 466 65 c 2
 466 260 l 2
 466 287 444 309 417 309 c 2
 123 309 l 2
 88 309 60 337 60 371 c 2
 60 589 l 2
 60 623 85 652 119 654 c 0
 120.176801774 654.065377876 121.347192149 654.097630186 122.510332795 654.097630186 c 0
 156.92927929 654.097630186 185 625.855887164 185 592 c 2
 185 483 l 2
 185 456 207 434 234 434 c 2
 529 434 l 2
 563 434 591 406 591 371 c 2
 591 62 l 2
 591 28.1441128362 562.92927929 -0.0976301856548 528.510332795 -0.0976301856548 c 0
 527.347192149 -0.0976301856548 526.176801774 -0.0653778763541 525 0 c 0xf3
338 134 m 2
 123 134 l 2
 88 134 60 162 60 196 c 0
 60 231 88 259 123 259 c 2
 338 259 l 2
 372 259 400 231 400 196 c 0xe5
 400 162 372 134 338 134 c 2
EndSplineSet
Validated: 524289
EndChar

StartChar: D
Encoding: 68 68 26
Width: 800
Flags: W
HStem: 0 21G<318.098 334.098> 330 125<219.074 428.146> 529 125<76.4001 724.122>
LayerCount: 2
Fore
SplineSet
678.09765625 529 m 2
 125.09765625 529 l 2
 90.4209410782 529 60.0000609663 556.015784889 60.0000609663 591.508445267 c 0
 60.0000609663 625.928253023 88.2738214608 654 123.09765625 654 c 2
 676.09765625 654 l 2
 709.09765625 654 738.09765625 629 740.09765625 596 c 0
 740.240955018 594.280414786 740.311242099 592.572237648 740.311242099 590.878302176 c 0
 740.311242099 557.109222203 712.378071036 529 678.09765625 529 c 2
326.09765625 0 m 0
 310.09765625 0 294.09765625 6 282.09765625 18 c 0
 269.59765625 30.5 263.34765625 46.5 263.34765625 62.5 c 0
 263.34765625 78.5 269.59765625 94.5 282.09765625 107 c 2
 422.09765625 246 l 2
 432.10928573 256.01162948 436.592991779 268.317868685 436.592991779 280.392385243 c 0
 436.592991779 305.705390274 416.887601505 330 387.09765625 330 c 2
 267.09765625 330 l 2
 234.09765625 330 205.09765625 355 203.09765625 388 c 0
 202.954357482 389.76735147 202.884070401 391.518731633 202.884070401 393.251633853 c 0
 202.884070401 427.7975269 230.817241464 455 265.09765625 455 c 2
 656.09765625 455 l 2
 676.09765625 455 696.09765625 446 707.09765625 430 c 0
 715.559126891 418.421145438 719.657376815 405.057336946 719.657376815 391.94001728 c 0
 719.657376815 375.602755797 713.300163928 359.647848238 701.09765625 348 c 2
 370.09765625 18 l 2
 358.09765625 6 342.09765625 0 326.09765625 0 c 0
EndSplineSet
Validated: 524289
EndChar

StartChar: E
Encoding: 69 69 27
Width: 878
Flags: W
HStem: -0.0976302 21G<640.931 658.754> 0 21G<445 456.5> 529 125<238.293 332.8 713.385 802.703>
VStem: 60 125<301.003 638.704> 223 125<544.293 638.8> 389 125<231.054 637.713> 580 125<16.2866 520.615>
LayerCount: 2
Fore
SplineSet
451 0 m 0x7e
 439 0 427 4 416 11 c 2
 88 231 l 2
 70 242 60 262 60 283 c 2
 60 589 l 2
 60 623 85 652 118 654 c 0
 119.209490713 654.065377876 120.411501458 654.097630186 121.60522884 654.097630186 c 0
 156.92927929 654.097630186 185 625.855887164 185 592 c 2
 185 342 l 2
 185 326 193 311 207 301 c 2
 312 231 l 2
 320.796092535 225.13593831 330.373712786 222.469035458 339.691286494 222.469035458 c 0
 365.330135896 222.469035458 389 242.661930345 389 272 c 2
 389 589 l 2
 389 623 414 652 447 654 c 0
 448.176801774 654.065377876 449.348260715 654.097630186 450.513468635 654.097630186 c 0
 484.9935886 654.097630186 514 625.855887164 514 592 c 2
 514 65 l 2
 514 42 503 21 484 9 c 0
 474 3 462 0 451 0 c 0x7e
348 592 m 0
 348 557 320 529 286 529 c 0
 251 529 223 557 223 592 c 0
 223 626 251 654 286 654 c 0
 320 654 348 626 348 592 c 0
638 0 m 0
 605 2 580 31 580 65 c 2
 580 592 l 2
 580 626 608 654 642 654 c 2
 753 654 l 2
 787.75544157 654 818.097595284 627.983844816 818.097595284 592.396708324 c 0
 818.097595284 557.071746977 789.823834789 529 755 529 c 2
 754 529 l 2
 727 529 705 507 705 480 c 2
 705 62 l 2
 705 28.1441128362 675.9935886 -0.0976301856548 641.513468635 -0.0976301856548 c 0xbe
 640.348260715 -0.0976301856548 639.176801774 -0.0653778763541 638 0 c 0
EndSplineSet
Validated: 524289
EndChar

StartChar: F
Encoding: 70 70 28
Width: 906
Flags: W
HStem: 0 125<329.232 830.139> 329 125<421.641 829.909> 529 125<493.293 587.8>
VStem: 478 125<544.293 638.8>
LayerCount: 2
Fore
SplineSet
541 529 m 0
 506 529 478 557 478 592 c 0
 478 626 506 654 541 654 c 0
 575 654 603 626 603 592 c 0
 603 557 575 529 541 529 c 0
60 62 m 0
 60 77 65 92 76 104 c 2
 365 432 l 2
 377 446 394 454 412 454 c 2
 782 454 l 2
 815.737304435 454 846.100830129 426.915822292 846.100830129 391.376317494 c 0
 846.100830129 357.009113048 818.784963471 329 784 329 c 2
 463 329 l 2
 449 329 435 323 426 312 c 2
 333 207 l 2
 324.505189939 197.291645644 320.70457847 185.926515314 320.70457847 174.80348165 c 0
 320.70457847 149.263548121 340.742215092 125 370 125 c 2
 782 125 l 2
 815.818296632 125 846.100830129 98.9142977741 846.100830129 63.2784433965 c 0
 846.100830129 28.0091130479 818.784963471 0 784 0 c 2
 125 0 l 2
 102 0 80 11 69 31 c 0
 63 41 60 52 60 62 c 0
EndSplineSet
Validated: 524289
EndChar

StartChar: G
Encoding: 71 71 29
Width: 829
Flags: W
HStem: 0 125<193.385 286.139> 349 125<289.293 383.8> 529 125<290.976 557.399>
VStem: 60 125<133.385 637.812> 274 125<364.2 458.707>
LayerCount: 2
Fore
SplineSet
240 0 m 2
 123 0 l 2
 88 0 60 28 60 62 c 2
 60 589 l 2
 60 623 85 652 119 654 c 0
 120.176801774 654.065377876 121.347192149 654.097630186 122.510332795 654.097630186 c 0
 156.92927929 654.097630186 185 625.855887164 185 592 c 2
 185 174 l 2
 185 147 207 125 234 125 c 2
 238 125 l 2
 271.818296632 125 302.100830129 98.9142977741 302.100830129 63.2784433965 c 0
 302.100830129 28.0091130479 274.784963471 0 240 0 c 2
411 0 m 0
 401 0 390 3 380 8 c 0
 359.584054212 19.5690359465 348.430571589 40.863658216 348.430571589 62.7439394265 c 0
 348.430571589 73.0154107302 350.88850442 83.4159457879 356 93 c 2
 560 456 l 2
 564.194608044 463.690114747 566.108416894 471.760362694 566.108416894 479.615966384 c 0
 566.108416894 505.470512709 545.377750132 529 517 529 c 2
 339 529 l 2
 306 529 277 554 275 587 c 0
 274.856701232 588.76735147 274.786414151 590.518731633 274.786414151 592.251633853 c 0
 274.786414151 626.7975269 302.719585214 654 337 654 c 2
 705 654 l 2
 723 654 740 648 752 635 c 0
 763.975610663 623.024389337 769.856073169 607.463397406 769.856073169 591.751994617 c 0
 769.856073169 581.224396773 767.215853069 570.629267205 762 561 c 2
 465 32 l 2
 454 12 433 0 411 0 c 0
337 349 m 0
 302 349 274 377 274 411 c 0
 274 446 302 474 337 474 c 0
 371 474 399 446 399 411 c 0
 399 377 371 349 337 349 c 0
EndSplineSet
Validated: 524289
EndChar

StartChar: H
Encoding: 72 72 30
Width: 843
Flags: W
HStem: 0 125<75.9617 550.183> 265 125<255.3 522.098> 529 125<75.3008 767.807>
LayerCount: 2
Fore
SplineSet
720.100585938 529 m 2
 122.100585938 529 l 2
 88.1005859375 529 60.1005859375 557 60.1005859375 592 c 0
 60.1005859375 626 88.1005859375 654 122.100585938 654 c 2
 720.100585938 654 l 2
 755.100585938 654 783.100585938 626 783.100585938 592 c 0
 783.100585938 557 755.100585938 529 720.100585938 529 c 2
718.100585938 0 m 2
 124.100585938 0 l 2
 90.2822893057 0 59.9997558085 26.0857022259 59.9997558085 61.7215566035 c 0
 59.9997558085 96.9908869521 87.3156224666 125 122.100585938 125 c 2
 510.100585938 125 l 2
 538.668017216 125 558.650589797 148.608361415 558.650589797 174.208730325 c 0
 558.650589797 183.557754581 555.985624704 193.172441851 550.100585938 202 c 2
 522.100585938 243 l 2
 513.100585938 256 498.100585938 265 482.100585938 265 c 2
 304.100585938 265 l 2
 269.402214937 265 239.002955752 290.992579917 239.002955752 326.513468635 c 0
 239.002955752 360.9935886 267.244698774 390 301.100585938 390 c 2
 541.100585938 390 l 2
 562.100585938 390 581.100585938 379 593.100585938 362 c 2
 772.100585938 98 l 2
 779.301725541 87.1982905948 782.856711205 74.9786324353 782.856711205 62.79971794 c 0
 782.856711205 47.9186610065 777.549232658 33.0984330453 767.100585938 21 c 0
 755.100585938 7 737.100585938 0 718.100585938 0 c 2
EndSplineSet
Validated: 524289
EndChar

StartChar: I
Encoding: 73 73 31
Width: 584
Flags: W
HStem: -0.0976302 21G<461.026 478.817> 366 125<223.298 317.804> 529 125<75.5696 390.713>
VStem: 208.098 125<381.293 475.8> 399.098 125<16.1882 520.615>
LayerCount: 2
Fore
SplineSet
458.09765625 0 m 0
 424.09765625 2 399.09765625 31 399.09765625 65 c 2
 399.09765625 480 l 2
 399.09765625 507 377.09765625 529 350.09765625 529 c 2
 125.09765625 529 l 2
 91.3262586988 529 60.0000609663 555.016155184 60.0000609663 590.603291676 c 0
 60.0000609663 625.928253023 88.2738214608 654 123.09765625 654 c 2
 462.09765625 654 l 2
 496.09765625 654 524.09765625 626 524.09765625 592 c 2
 524.09765625 62 l 2
 524.09765625 28.1441128362 496.02693554 -0.0976301856548 461.607989045 -0.0976301856548 c 0
 460.444848399 -0.0976301856548 459.274458024 -0.0653778763541 458.09765625 0 c 0
333.09765625 429 m 0
 333.09765625 394 305.09765625 366 270.09765625 366 c 0
 236.09765625 366 208.09765625 394 208.09765625 429 c 0
 208.09765625 463 236.09765625 491 270.09765625 491 c 0
 305.09765625 491 333.09765625 463 333.09765625 429 c 0
EndSplineSet
Validated: 524289
EndChar

StartChar: J
Encoding: 74 74 32
Width: 839
Flags: W
HStem: 0 125<76.4001 359.785> 330 125<76.4001 466.146> 529 125<392.636 762.795>
VStem: 376 403.195<545.908 637.733>
LayerCount: 2
Fore
SplineSet
716.09765625 529 m 2
 441.09765625 529 l 2
 407.405531184 529 376.000060966 556.015784889 376.000060966 591.508445267 c 0
 376.000060966 625.928253023 404.273821461 654 439.09765625 654 c 2
 714.09765625 654 l 2
 748.794841858 654 779.195251534 628.007954592 779.195251534 592.488422247 c 0
 779.195251534 558.007471877 750.921491039 529 716.09765625 529 c 2
364.09765625 0 m 2
 125.09765625 0 l 2
 92.098279414 0 60.0000609663 26.0161551841 60.0000609663 61.6032916757 c 0
 60.0000609663 96.9282530225 88.2738214608 125 123.09765625 125 c 2
 318.09765625 125 l 2
 331.09765625 125 344.09765625 130 353.09765625 139 c 2
 460.09765625 246 l 2
 470.10928573 256.01162948 474.592991779 268.317868685 474.592991779 280.392385243 c 0
 474.592991779 305.705390274 454.887601505 330 425.09765625 330 c 2
 125.09765625 330 l 2
 92.098279414 330 60.0000609663 356.016155184 60.0000609663 391.603291676 c 0
 60.0000609663 426.928253023 88.2738214608 455 123.09765625 455 c 2
 694.09765625 455 l 2
 714.09765625 455 734.09765625 446 746.09765625 430 c 0
 754.42108509 418.610044746 758.330586628 405.492900547 758.330586628 392.582199499 c 0
 758.330586628 376.021474211 751.898077006 359.800420756 740.09765625 348 c 2
 409.09765625 18 l 2
 397.09765625 7 381.09765625 0 364.09765625 0 c 2
EndSplineSet
Validated: 524289
EndChar

StartChar: K
Encoding: 75 75 33
Width: 793
Flags: W
HStem: 0 125<75.4141 523.921> 529 125<76.19 599.829>
VStem: 608.214 125<15.2956 520.615>
LayerCount: 2
Fore
SplineSet
666.213867188 0 m 0
 633.213867188 2 608.213867188 31 608.213867188 65 c 2
 608.213867188 480 l 2
 608.213867188 507 586.213867188 529 559.213867188 529 c 2
 124.213867188 529 l 2
 91.2138671875 529 62.2138671875 554 60.2138671875 587 c 0
 60.0705684197 588.76735147 60.0002813385 590.518731633 60.0002813385 592.251633853 c 0
 60.0002813385 626.7975269 87.9334524013 654 122.213867188 654 c 2
 671.213867188 654 l 2
 705.213867188 654 733.213867188 626 733.213867188 592 c 2
 733.213867188 62 l 2
 733.213867188 28.1441128362 705.143146478 -0.0976301856548 669.819096028 -0.0976301856548 c 0
 668.625368646 -0.0976301856548 667.4233579 -0.0653778763541 666.213867188 0 c 0
476.213867188 0 m 2
 122.213867188 0 l 2
 88.2138671875 0 60.2138671875 28 60.2138671875 62 c 0
 60.2138671875 97 88.2138671875 125 122.213867188 125 c 2
 476.213867188 125 l 2
 511.213867188 125 539.213867188 97 539.213867188 62 c 0
 539.213867188 28 511.213867188 0 476.213867188 0 c 2
EndSplineSet
Validated: 524289
EndChar

StartChar: L
Encoding: 76 76 34
Width: 584
Flags: W
HStem: 0 125<76.19 390.776> 163 125<75.4141 169.921> 634.098 20G<460.145 477.967> 634.098 20G<460.145 477.967>
VStem: 60.2139 125<178.2 272.707> 399.214 125<133.385 637.713>
LayerCount: 2
Fore
SplineSet
461.213867188 0 m 2xec
 124.213867188 0 l 2
 91.2138671875 0 62.2138671875 25 60.2138671875 58 c 0
 60.0705684197 59.7673514698 60.0002813385 61.5187316331 60.0002813385 63.251633853 c 0
 60.0002813385 97.7975269002 87.9334524013 125 122.213867188 125 c 2
 349.213867188 125 l 2
 377.213867188 125 399.213867188 147 399.213867188 174 c 2
 399.213867188 589 l 2
 399.213867188 623 424.213867188 652 457.213867188 654 c 0
 458.390668962 654.065377876 459.562127903 654.097630186 460.727335822 654.097630186 c 0
 495.207455787 654.097630186 524.213867188 625.855887164 524.213867188 592 c 2
 524.213867188 62 l 2
 524.213867188 28 496.213867188 0 461.213867188 0 c 2xec
185.213867188 225 m 0
 185.213867188 191 157.213867188 163 122.213867188 163 c 0
 88.2138671875 163 60.2138671875 191 60.2138671875 225 c 0
 60.2138671875 260 88.2138671875 288 122.213867188 288 c 0
 157.213867188 288 185.213867188 260 185.213867188 225 c 0
EndSplineSet
Validated: 524289
EndChar

StartChar: M
Encoding: 77 77 35
Width: 722
Flags: W
HStem: 0 125<268.529 646.49> 529 125<553.128 647.634>
VStem: 537.928 125<544.293 638.8>
LayerCount: 2
Fore
SplineSet
599.927734375 529 m 0
 565.927734375 529 537.927734375 557 537.927734375 592 c 0
 537.927734375 626 565.927734375 654 599.927734375 654 c 0
 634.927734375 654 662.927734375 626 662.927734375 592 c 0
 662.927734375 557 634.927734375 529 599.927734375 529 c 0
122.927734375 0 m 2
 110.927734375 0 98.927734375 3 89.927734375 9 c 0
 69.7738517906 21.7641256368 60.0000987775 42.2005209567 60.0000987775 62.7294789818 c 0
 60.0000987775 72.7588383516 62.332879581 82.8102904121 66.927734375 92 c 2
 349.927734375 618 l 2
 360.989413682 639.432003657 382.566469863 651.304573792 404.745460297 651.304573792 c 0
 414.646937674 651.304573792 424.668383075 648.938320693 433.927734375 644 c 0
 455.359738032 632.246965736 467.232308167 610.456526274 467.232308167 588.211676149 c 0
 467.232308167 578.280796701 464.866055068 568.2593513 459.927734375 559 c 2
 265.927734375 198 l 2
 261.733126331 190.309885253 259.819317481 182.239637306 259.819317481 174.384033616 c 0
 259.819317481 148.529487291 280.549984243 125 308.927734375 125 c 2
 599.927734375 125 l 2
 626.927734375 125 651.927734375 109 659.927734375 83 c 0
 661.928709067 76.3813914027 662.863556615 69.8338579484 662.863556615 63.4923258883 c 0
 662.863556615 28.6339781589 634.616968038 0 599.927734375 0 c 2
 122.927734375 0 l 2
EndSplineSet
Validated: 524289
EndChar

StartChar: N
Encoding: 78 78 36
Width: 774
Flags: W
HStem: -0.0976302 21G<634.733 652.992> 0 21G<115 131> 322 333<75.2933 169.8>
VStem: 60 125<337.293 639.8> 589 125<15.2956 364.048>
LayerCount: 2
Fore
SplineSet
123 0 m 0x78
 107 0 91 6 78 18 c 0
 66 30.5 60 46.5 60 62.5 c 0
 60 78.5 66 94.5 78 107 c 2
 607 638 l 2
 619.362345554 649.800420756 635.51380485 656.232930378 651.905716265 656.232930378 c 0
 664.68481043 656.232930378 677.610044746 652.32342884 689 644 c 0
 705 632 714 612 714 592 c 2
 714 65 l 2
 714 31 689 2 656 0 c 0x78
 654.790509287 -0.0653778763541 653.588498542 -0.0976301856548 652.39477116 -0.0976301856548 c 0xb8
 617.07072071 -0.0976301856548 589 28.1441128362 589 62 c 2
 589 323 l 2
 589 352.789945255 564.705390274 372.495335529 539.392385243 372.495335529 c 0
 527.317868685 372.495335529 515.01162948 368.01162948 505 358 c 2
 167 18 l 2
 155 6 139 0 123 0 c 0x78
123 322 m 0
 88 322 60 350 60 385 c 2
 60 593 l 2
 60 627 88 655 123 655 c 0
 157 655 185 627 185 593 c 2
 185 385 l 2
 185 350 157 322 123 322 c 0
EndSplineSet
Validated: 524289
EndChar

StartChar: O
Encoding: 79 79 37
Width: 863
Flags: W
HStem: 0 125<247.584 615.029> 633.675 20G<325.348 341.521 521.197 537.554> 633.675 20G<325.348 341.521 521.197 537.554>
LayerCount: 2
Fore
SplineSet
738.306640625 0 m 2xc0
 124.306640625 0 l 2
 108.306640625 0 92.306640625 6 80.306640625 17 c 0
 66.6630618905 29.279220861 60.0000046817 45.7467546374 60.0000046817 62.5930295275 c 0
 60.0000046817 70.4415582779 61.4462510555 78.3722944814 64.306640625 86 c 2
 280.306640625 615 l 2
 290.136978028 639.197753607 313.118896906 653.674773079 337.577878703 653.674773079 c 0
 345.464354679 653.674773079 353.504394232 652.169662597 361.306640625 649 c 0
 385.504394232 639.169662597 399.981413704 616.187743719 399.981413704 591.728761922 c 0
 399.981413704 583.842285946 398.476303222 575.802246393 395.306640625 568 c 2
 243.306640625 193 l 2
 240.798060028 186.632064639 239.629995159 180.189656181 239.629995159 173.938636369 c 0
 239.629995159 147.795537504 260.060511463 125 288.306640625 125 c 2
 574.306640625 125 l 2
 602.722856204 125 623.888219223 148.07089451 623.888219223 174.4112648 c 0
 623.888219223 180.514094329 622.752046267 186.792431832 620.306640625 193 c 2
 467.306640625 568 l 2
 464.136978028 575.802246393 462.631867546 583.842285946 462.631867546 591.728761922 c 0
 462.631867546 616.187743719 477.108887018 639.169662597 501.306640625 649 c 0
 509.108887018 652.169662597 517.20837486 653.674773079 525.184758029 653.674773079 c 0
 549.922576453 653.674773079 573.476303222 639.197753607 583.306640625 615 c 2
 798.306640625 86 l 2
 801.52898603 78.266371027 803.08996985 70.2212367566 803.08996985 62.2661082544 c 0
 803.08996985 45.5338507028 796.184184355 29.1997782702 783.306640625 17 c 0
 771.306640625 6 755.306640625 0 738.306640625 0 c 2xc0
EndSplineSet
Validated: 524289
EndChar

StartChar: P
Encoding: 80 80 38
Width: 574
Flags: W
HStem: 0 21G<443.5 456.5> 529 125<238.293 332.8>
VStem: 60 125<361.641 637.812> 223 125<544.293 638.8> 389 125<268.958 638.704>
LayerCount: 2
Fore
SplineSet
451 0 m 0
 436 0 422 5 410 16 c 2
 81 305 l 2
 68 317 60 334 60 352 c 2
 60 589 l 2
 60 623 85 652 119 654 c 0
 120.176801774 654.065377876 121.347192149 654.097630186 122.510332795 654.097630186 c 0
 156.92927929 654.097630186 185 625.855887164 185 592 c 2
 185 403 l 2
 185 388 191 375 202 366 c 2
 307 273 l 2
 316.836935538 264.392681404 328.37482363 260.51023101 339.638339757 260.51023101 c 0
 365.015555355 260.51023101 389 280.21838213 389 310 c 2
 389 589 l 2
 389 623 414 652 447 654 c 0
 448.209490713 654.065377876 449.411501458 654.097630186 450.60522884 654.097630186 c 0
 485.92927929 654.097630186 514 625.855887164 514 592 c 2
 514 65 l 2
 514 42 503 20 483 9 c 0
 473 3 462 0 451 0 c 0
348 592 m 0
 348 557 320 529 286 529 c 0
 251 529 223 557 223 592 c 0
 223 626 251 654 286 654 c 0
 320 654 348 626 348 592 c 0
EndSplineSet
Validated: 524289
EndChar

StartChar: Q
Encoding: 81 81 39
Width: 779
Flags: W
HStem: 0 125<506.188 703.024> 331 125<609.293 703.8> 529 125<193.385 703.024>
VStem: 60 125<403.766 520.615> 594 125<346.293 440.8>
LayerCount: 2
Fore
SplineSet
655 0 m 2
 506 0 l 2
 492 0 477 5 466 15 c 2
 82 347 l 2
 68 358 60 376 60 394 c 2
 60 592 l 2
 60 626 88 654 122 654 c 2
 655 654 l 2
 688 654 717 629 719 596 c 0
 719.143298768 594.23264853 719.213585849 592.481268367 719.213585849 590.748366147 c 0
 719.213585849 556.2024731 691.280414786 529 657 529 c 2
 234 529 l 2
 207 529 185 507 185 480 c 2
 185 445 l 2
 185 431 191 417 202 408 c 2
 516 137 l 2
 525 129 536 125 548 125 c 2
 657 125 l 2
 691.280414786 125 719.213585849 97.7975269002 719.213585849 63.251633853 c 0
 719.213585849 61.5187316331 719.143298768 59.7673514698 719 58 c 0
 717 25 688 0 655 0 c 2
657 331 m 4
 622 331 594 359 594 394 c 4
 594 428 622 456 657 456 c 4
 691 456 719 428 719 394 c 4
 719 359 691 331 657 331 c 4
EndSplineSet
Validated: 524289
EndChar

StartChar: R
Encoding: 82 82 40
Width: 776
Flags: W
HStem: 0 21G<115.098 131.098> 529 125<75.3947 424.146>
LayerCount: 2
Fore
SplineSet
123.09765625 0 m 0
 107.09765625 0 91.09765625 6 78.09765625 18 c 0
 66.09765625 30.5 60.09765625 46.5 60.09765625 62.5 c 0
 60.09765625 78.5 66.09765625 94.5 78.09765625 107 c 2
 418.09765625 445 l 2
 428.10928573 455.01162948 432.592991779 467.317868685 432.592991779 479.392385243 c 0
 432.592991779 504.705390274 412.887601505 529 383.09765625 529 c 2
 125.09765625 529 l 2
 90.3422146798 529 60.0000609663 555.016155184 60.0000609663 590.603291676 c 0
 60.0000609663 625.928253023 88.2738214608 654 123.09765625 654 c 2
 652.09765625 654 l 2
 672.09765625 654 692.09765625 645 704.09765625 629 c 0
 712.42108509 617.610044746 716.330586628 604.68481043 716.330586628 591.905716265 c 0
 716.330586628 575.51380485 709.898077006 559.362345554 698.09765625 547 c 2
 167.09765625 18 l 2
 154.09765625 6 139.09765625 0 123.09765625 0 c 0
EndSplineSet
Validated: 524289
EndChar

StartChar: S
Encoding: 83 83 41
Width: 763
Flags: W
HStem: 0 125<75.2003 377.707> 633.891 20G<113.987 130.615 639.008 657.267> 633.891 20G<113.987 130.615 639.008 657.267>
VStem: 60 333<15.2003 109.707> 578 125<295.219 638.704>
LayerCount: 2
Fore
SplineSet
641 0 m 0xd8
 624 0 608 7 596 19 c 2
 79 546 l 2
 66.7531631303 558.779308038 60.1768371609 575.527973706 60.1768371609 592.169829194 c 0
 60.1768371609 606.781976702 65.2468368697 621.311779206 76 633 c 0
 88.339532011 646.881973512 105.437315592 653.890916979 122.536381034 653.890916979 c 0
 138.694457778 653.890916979 154.853679178 647.632173655 167 635 c 2
 494 302 l 2
 504.174658856 291.497126342 516.719266748 286.811400315 528.982054289 286.811400315 c 0
 554.081346318 286.811400315 578 306.44145128 578 336 c 2
 578 589 l 2
 578 623 603 652 636 654 c 0
 637.209490713 654.065377876 638.411501458 654.097630186 639.60522884 654.097630186 c 0
 674.92927929 654.097630186 703 625.855887164 703 592 c 2
 703 65 l 2
 703 42 692 20 672 9 c 0
 662 3 651 0 641 0 c 0xd8
330 0 m 2
 122 0 l 2
 88 0 60 28 60 62 c 0
 60 97 88 125 122 125 c 2
 330 125 l 2
 365 125 393 97 393 62 c 0
 393 28 365 0 330 0 c 2
EndSplineSet
Validated: 524289
EndChar

StartChar: T
Encoding: 84 84 42
Width: 837
Flags: W
HStem: 0 125<288.611 487.656> 635 20G<401.75 436.25>
VStem: 356.75 125<225.2 639.707>
LayerCount: 2
Fore
SplineSet
418.75 210 m 0
 384.75 210 356.75 238 356.75 272 c 2
 356.75 592 l 2
 356.75 627 384.75 655 418.75 655 c 0
 453.75 655 481.75 627 481.75 592 c 2
 481.75 272 l 2
 481.75 238 453.75 210 418.75 210 c 0
493.75 0 m 2
 336.75 0 l 2
 302.931703368 0 272.649169871 26.0857022259 272.649169871 61.7215566035 c 0
 272.649169871 96.9908869521 299.965036529 125 334.75 125 c 2
 446.75 125 l 2
 459.75 125 472.75 130 481.75 139 c 2
 670.75 328 l 2
 683.268518519 340.518518519 699.264403292 346.777777778 715.165841081 346.777777778 c 0
 732.290466392 346.777777778 749.305555556 339.518518519 761.75 325 c 0
 772.033622917 313.314064867 777.073300365 298.787659271 777.073300365 284.178401509 c 0
 777.073300365 267.533725386 770.531502272 250.781502272 757.75 238 c 2
 537.75 18 l 2
 525.75 7 509.75 0 493.75 0 c 2
184.75 150 m 0
 168.75 150 152.75 156 140.75 168 c 2
 78.75 231 l 2
 66.25 243 60 259 60 275 c 0
 60 291 66.25 307 78.75 319 c 0
 90.75 331 106.75 337 122.75 337 c 0
 138.75 337 154.75 331 166.75 319 c 2
 228.75 257 l 2
 241.25 244.5 247.5 228.5 247.5 212.5 c 0
 247.5 196.5 241.25 180.5 228.75 168 c 0
 216.75 156 200.75 150 184.75 150 c 0
EndSplineSet
Validated: 524289
EndChar

StartChar: U
Encoding: 85 85 43
Width: 863
Flags: W
HStem: 0 125<193.385 585.698> 331 125<506.2 600.707> 528 125<481.438 669.615>
VStem: 60 125<133.385 637.812> 491 125<346.293 440.8> 678 125<15.2956 519.615>
LayerCount: 2
Fore
SplineSet
539 0 m 2
 123 0 l 2
 88 0 60 28 60 62 c 2
 60 589 l 2
 60 623 85 652 119 654 c 0
 120.176801774 654.065377876 121.347192149 654.097630186 122.510332795 654.097630186 c 0
 156.92927929 654.097630186 185 625.855887164 185 592 c 2
 185 174 l 2
 185 147 207 125 234 125 c 2
 537 125 l 2
 569.999376836 125 602.097595284 98.9838448159 602.097595284 63.3967083243 c 0
 602.097595284 28.0717469775 573.823834789 0 539 0 c 2
736 0 m 0
 703 2 678 31 678 65 c 2
 678 479 l 2
 678 506 656 528 629 528 c 2
 524 528 l 2
 511 528 499 523 489 514 c 2
 368 392 l 2
 356 380 340 374 324 374 c 0
 308 374 292 380 280 392 c 0
 268 404.5 262 420.5 262 436.5 c 0
 262 452.5 268 468.5 280 481 c 2
 434 635 l 2
 445 646 461 653 478 653 c 2
 741 653 l 2
 775 653 803 625 803 590 c 2
 803 62 l 2
 803 28.1441128362 774.92927929 -0.0976301856548 739.60522884 -0.0976301856548 c 0
 738.411501458 -0.0976301856548 737.209490713 -0.0653778763541 736 0 c 0
616 394 m 0
 616 359 588 331 553 331 c 0
 519 331 491 359 491 394 c 0
 491 428 519 456 553 456 c 0
 588 456 616 428 616 394 c 0
EndSplineSet
Validated: 524289
EndChar

StartChar: V
Encoding: 86 86 44
Width: 580
Flags: W
HStem: -0.0976302 21G<341.809 359.6> 529 125<411.08 505.587> 633.919 20G<113.653 130.28>
VStem: 279.88 125<16.2866 368.719> 395.88 125<544.293 638.8>
LayerCount: 2
Fore
SplineSet
338.879882812 0 m 0xb0
 305.879882812 2 279.879882812 31 279.879882812 65 c 2
 279.879882812 328 l 2
 279.879882812 341 274.879882812 354 265.879882812 363 c 2
 79.8798828125 546 l 2
 66.8403200974 558.496247602 59.9997749376 575.420364886 59.9997749376 592.28165862 c 0
 59.9997749376 606.45446154 64.8328153013 620.582877828 74.8798828125 632 c 0
 87.4461726586 646.660671487 104.94720127 653.919234826 122.35890032 653.919234826 c 0
 138.201310662 653.919234826 153.969768069 647.910114744 165.879882812 636 c 2
 386.879882812 420 l 2
 398.879882812 408 404.879882812 392 404.879882812 375 c 2
 404.879882812 62 l 2
 404.879882812 28.1441128362 376.809162103 -0.0976301856548 342.390215608 -0.0976301856548 c 0
 341.227074961 -0.0976301856548 340.056684587 -0.0653778763541 338.879882812 0 c 0xb0
520.879882812 592 m 0xc8
 520.879882812 557 492.879882812 529 457.879882812 529 c 0
 423.879882812 529 395.879882812 557 395.879882812 592 c 0
 395.879882812 626 423.879882812 654 457.879882812 654 c 0
 492.879882812 654 520.879882812 626 520.879882812 592 c 0xc8
EndSplineSet
Validated: 524289
EndChar

StartChar: W
Encoding: 87 87 45
Width: 860
Flags: W
HStem: 5 125<332.976 666.615> 531 125<193.385 527.024 690.293 784.8>
VStem: 60 125<16.2866 522.615> 675 125<138.385 375.024 546.2 640.707>
LayerCount: 2
Fore
SplineSet
118 0 m 0
 85 2 60 31 60 65 c 2
 60 593 l 2
 60 628 88 656 122 656 c 2
 479 656 l 2
 512 656 541 631 543 598 c 0
 543.143298768 596.23264853 543.213585849 594.481268367 543.213585849 592.748366147 c 0
 543.213585849 558.2024731 515.280414786 531 481 531 c 2
 234 531 l 2
 207 531 185 509 185 482 c 2
 185 62 l 2
 185 28.1441128362 155.9935886 -0.0976301856548 121.513468635 -0.0976301856548 c 0
 120.348260715 -0.0976301856548 119.176801774 -0.0653778763541 118 0 c 0
738 531 m 0
 703 531 675 559 675 593 c 0
 675 628 703 656 738 656 c 0
 772 656 800 628 800 593 c 0
 800 559 772 531 738 531 c 0
738 5 m 2
 381 5 l 2
 348 5 319 30 317 63 c 0
 316.856701232 64.7195852138 316.786414151 66.4277623517 316.786414151 68.1216978238 c 0
 316.786414151 101.890777797 344.719585214 130 379 130 c 2
 626 130 l 2
 653 130 675 152 675 179 c 2
 675 327 l 2
 675 360 700 389 734 391 c 0
 735.719585214 391.143298768 737.425480736 391.213585849 739.115070947 391.213585849 c 0
 772.7975269 391.213585849 800 363.280414786 800 329 c 2
 800 67 l 2
 800 33 772 5 738 5 c 2
EndSplineSet
Validated: 524289
EndChar

StartChar: X
Encoding: 88 88 46
Width: 754
Flags: W
HStem: 0 125<330.245 424.752> 382.75 271.25<336.822 418.309>
VStem: 315.045 125<15.2003 109.707>
LayerCount: 2
Fore
SplineSet
123.044921875 0 m 0
 114.044921875 0 104.044921875 2 96.044921875 6 c 0
 73.5442945254 16.8874003305 59.9996816702 39.3649370655 59.9996816702 63.1082638933 c 0
 59.9996816702 72.0770530535 61.9323222055 81.2264540383 66.044921875 90 c 2
 321.044921875 619 l 2
 331.044921875 640 353.044921875 654 377.044921875 654 c 0
 401.044921875 654 423.044921875 640 434.044921875 619 c 2
 688.044921875 90 l 2
 692.275886939 80.9739411969 694.279163868 71.5500809411 694.279163868 62.3343294901 c 0
 694.279163868 38.8775654098 681.300927409 16.769034936 659.044921875 6 c 0
 650.300927409 1.76903493604 641.079571201 -0.234241992679 632.009204627 -0.234241992679 c 0
 608.922487285 -0.234241992679 586.813956811 12.7439944655 576.044921875 35 c 2
 422.044921875 355 l 2
 413.044921875 373.5 395.294921875 382.75 377.544921875 382.75 c 0
 359.794921875 382.75 342.044921875 373.5 333.044921875 355 c 2
 179.044921875 35 l 2
 168.044921875 13 146.044921875 0 123.044921875 0 c 0
377.044921875 0 m 0
 343.044921875 0 315.044921875 28 315.044921875 62 c 0
 315.044921875 97 343.044921875 125 377.044921875 125 c 0
 412.044921875 125 440.044921875 97 440.044921875 62 c 0
 440.044921875 28 412.044921875 0 377.044921875 0 c 0
EndSplineSet
Validated: 524289
EndChar

StartChar: Y
Encoding: 89 89 47
Width: 872
Flags: W
HStem: 0 232<395.585 477.352> 349 125<391.227 485.733> 529 125<277.752 484.05>
VStem: 376.026 125<364.2 458.707>
LayerCount: 2
Fore
SplineSet
436.026367188 0 m 0
 414.026367188 0 394.026367188 12 383.026367188 31 c 2
 69.0263671875 560 l 2
 63.060270363 569.801444783 59.9998316054 581.0557186 59.9998316054 592.292404887 c 0
 59.9998316054 607.423646016 65.549362651 622.522995464 77.0263671875 634 c 0
 89.0263671875 647 106.026367188 654 124.026367188 654 c 2
 436.026367188 654 l 2
 469.026367188 654 498.026367188 629 500.026367188 596 c 0
 500.169665955 594.23264853 500.239953037 592.481268367 500.239953037 590.748366147 c 0
 500.239953037 556.2024731 472.306781974 529 438.026367188 529 c 2
 318.026367188 529 l 2
 289.358212448 529 269.22741674 505.664551978 269.22741674 480.033596568 c 0
 269.22741674 471.690397923 271.360444557 463.103970884 276.026367188 455 c 2
 394.026367188 256 l 2
 403.526367188 240 420.026367188 232 436.526367188 232 c 0
 453.026367188 232 469.526367188 240 479.026367188 256 c 2
 697.026367188 623 l 2
 708.28508741 642.868329805 729.193265015 653.964425627 750.455452646 653.964425627 c 0
 761.297907689 653.964425627 772.232419332 651.079002117 782.026367188 645 c 0
 801.894696993 633.741279777 812.990792814 612.833102173 812.990792814 591.570914542 c 0
 812.990792814 580.728459498 810.105369304 569.793947855 804.026367188 560 c 2
 490.026367188 31 l 2
 479.026367188 12 458.026367188 0 436.026367188 0 c 0
438.026367188 349 m 0
 404.026367188 349 376.026367188 377 376.026367188 411 c 0
 376.026367188 446 404.026367188 474 438.026367188 474 c 0
 473.026367188 474 501.026367188 446 501.026367188 411 c 0
 501.026367188 377 473.026367188 349 438.026367188 349 c 0
EndSplineSet
Validated: 524289
EndChar

StartChar: Z
Encoding: 90 90 48
Width: 863
Flags: W
HStem: 1 125<193.385 585.698> 188 125<275.2 369.707> 528 125<481.438 669.615>
VStem: 60 125<134.385 306.812> 260 125<203.2 297.707> 678 125<15.2956 519.615>
LayerCount: 2
Fore
SplineSet
736 0 m 0
 703 2 678 31 678 65 c 2
 678 479 l 2
 678 506 656 528 629 528 c 2
 524 528 l 2
 511 528 499 523 489 514 c 2
 368 392 l 2
 356 380 340 374 324 374 c 0
 308 374 292 380 280 392 c 0
 268 404.5 262 420.5 262 436.5 c 0
 262 452.5 268 468.5 280 481 c 2
 434 635 l 2
 445 646 461 653 478 653 c 2
 741 653 l 2
 775 653 803 625 803 590 c 2
 803 62 l 2
 803 28.1441128362 774.92927929 -0.0976301856548 739.60522884 -0.0976301856548 c 0
 738.411501458 -0.0976301856548 737.209490713 -0.0653778763541 736 0 c 0
539 1 m 2
 123 1 l 2
 88 1 60 29 60 63 c 2
 60 258 l 2
 60 292 85 321 119 323 c 0
 120.176801774 323.065377876 121.347192149 323.097630186 122.510332795 323.097630186 c 0
 156.92927929 323.097630186 185 294.855887164 185 261 c 2
 185 175 l 2
 185 148 207 126 234 126 c 2
 537 126 l 2
 569.999376836 126 602.097595284 99.9838448159 602.097595284 64.3967083243 c 0
 602.097595284 29.0717469775 573.823834789 1 539 1 c 2
322 188 m 0
 288 188 260 216 260 250 c 0
 260 285 288 313 322 313 c 0
 357 313 385 285 385 250 c 0
 385 216 357 188 322 188 c 0
EndSplineSet
Validated: 524289
EndChar

StartChar: a
Encoding: 97 97 49
Width: 886
Flags: W
HStem: -0.0976302 21G<121.929 139.72> 0 21G<756 772> 243 125<193.438 518.469> 634.106 19.992G<106.246 124.069 755.355 771.268> 634.106 19.992G<106.246 124.069 755.355 771.268>
VStem: 60 125<16.2866 234.615 376.385 637.713>
LayerCount: 2
Fore
SplineSet
629 371 m 0x24
 614 371 600 376 588 386 c 0
 573.648759377 398.14335745 566.304969154 415.466134762 566.304969154 433.091404512 c 0
 566.304969154 447.397660791 571.14335745 461.903211416 581 474 c 2
 716 632 l 2
 728.783507579 646.450921611 746.509716588 654.105628756 764.199369487 654.105628756 c 0
 778.336819921 654.105628756 792.450921611 649.216492421 804 639 c 0
 818.847310746 626.902191244 826.437250747 609.361354428 826.437250747 591.698597636 c 0
 826.437250747 577.241434427 821.352290846 562.702589652 811 551 c 2
 676 393 l 2
 664 378 646 371 629 371 c 0x24
808 106 m 2
 820.372488798 94.1224107541 826.376912867 78.3260124445 826.376912867 62.4896387704 c 0
 826.376912867 46.3268449107 820.122410754 30.1224107541 808 18 c 0
 796 6 780 0 764 0 c 0x74
 748 0 732 6 719 19 c 2
 512 229 l 2
 502 238 490 243 477 243 c 2
 235 243 l 2
 207 243 185 221 185 194 c 2
 185 62 l 2
 185 28.1441128362 156.92927929 -0.0976301856548 122.510332795 -0.0976301856548 c 0xa4
 121.347192149 -0.0976301856548 120.176801774 -0.0653778763541 119 0 c 0
 86 2 60 31 60 65 c 2
 60 592 l 2
 60 625.855887164 89.0064114001 654.097630186 123.486531365 654.097630186 c 0x74
 124.651739285 654.097630186 125.823198226 654.065377876 127 654 c 0
 160 652 185 623 185 589 c 2
 185 417 l 2
 185 390 207 368 235 368 c 2
 523 368 l 2
 540 368 556 362 568 350 c 2
 808 106 l 2
EndSplineSet
Validated: 524289
EndChar

StartChar: b
Encoding: 98 98 50
Width: 846
Flags: W
HStem: 0 125<270.223 770.122> 265 125<272.298 574.804> 529 125<75.2908 576.035>
VStem: 257.098 333<280.2 374.707>
LayerCount: 2
Fore
SplineSet
724.09765625 386 m 0
 708.09765625 386 692.09765625 392 680.09765625 404 c 2
 569.09765625 515 l 2
 560.09765625 524 547.09765625 529 534.09765625 529 c 2
 125.09765625 529 l 2
 90.3410006679 529 60.0000260643 555.016703159 60.0000260643 590.60522884 c 0
 60.0000260643 625.92927929 88.2417690862 654 122.09765625 654 c 2
 581.09765625 654 l 2
 597.09765625 654 613.09765625 647 625.09765625 636 c 2
 767.09765625 494 l 2
 779.464431233 481.117942726 785.98985775 463.987632021 785.98985775 446.987167406 c 0
 785.98985775 430.99510557 780.215598976 415.117942726 768.09765625 403 c 0
 756.09765625 392 740.09765625 386 724.09765625 386 c 0
527.09765625 265 m 2
 319.09765625 265 l 2
 285.09765625 265 257.09765625 293 257.09765625 327 c 0
 257.09765625 362 285.09765625 390 319.09765625 390 c 2
 527.09765625 390 l 2
 562.09765625 390 590.09765625 362 590.09765625 327 c 0
 590.09765625 293 562.09765625 265 527.09765625 265 c 2
722.09765625 0 m 2
 266.09765625 0 l 2
 249.09765625 0 233.09765625 7 222.09765625 18 c 2
 80.09765625 160 l 2
 67.0580935349 173.039562715 60.2175483751 190.2118038 60.2175483751 207.186411924 c 0
 60.2175483751 221.45446154 65.0505887388 235.582877828 75.09765625 247 c 0
 87.5591947115 261.019230769 104.873543824 268.028846154 122.281216218 268.028846154 c 0
 138.399431398 268.028846154 154.59765625 262.019230769 167.09765625 250 c 2
 277.09765625 139 l 2
 287.09765625 130 299.09765625 125 312.09765625 125 c 2
 724.09765625 125 l 2
 758.378071036 125 786.311242099 97.7975269002 786.311242099 63.251633853 c 0
 786.311242099 61.5187316331 786.240955018 59.7673514698 786.09765625 58 c 0
 784.09765625 25 755.09765625 0 722.09765625 0 c 2
EndSplineSet
Validated: 524289
EndChar

StartChar: c
Encoding: 99 99 51
Width: 651
Flags: W
HStem: -0.0976302 21G<527.929 545.72> 134 125<75.2933 384.8> 309 125<193.385 457.615> 634.098 20G<121.929 139.72> 634.098 20G<121.929 139.72>
VStem: 60 340<149.2 243.707> 60 125<442.385 637.812> 466 125<16.1882 300.615>
LayerCount: 2
Fore
SplineSet
525 0 m 0xf3
 491 2 466 31 466 65 c 2
 466 260 l 2
 466 287 444 309 417 309 c 2
 123 309 l 2
 88 309 60 337 60 371 c 2
 60 589 l 2
 60 623 85 652 119 654 c 0
 120.176801774 654.065377876 121.347192149 654.097630186 122.510332795 654.097630186 c 0
 156.92927929 654.097630186 185 625.855887164 185 592 c 2
 185 483 l 2
 185 456 207 434 234 434 c 2
 529 434 l 2
 563 434 591 406 591 371 c 2
 591 62 l 2
 591 28.1441128362 562.92927929 -0.0976301856548 528.510332795 -0.0976301856548 c 0
 527.347192149 -0.0976301856548 526.176801774 -0.0653778763541 525 0 c 0xf3
338 134 m 2
 123 134 l 2
 88 134 60 162 60 196 c 0
 60 231 88 259 123 259 c 2
 338 259 l 2
 372 259 400 231 400 196 c 0xe5
 400 162 372 134 338 134 c 2
EndSplineSet
Validated: 524289
EndChar

StartChar: d
Encoding: 100 100 52
Width: 800
Flags: W
HStem: 0 21G<318.098 334.098> 330 125<219.074 428.146> 529 125<76.4001 724.122>
LayerCount: 2
Fore
SplineSet
678.09765625 529 m 2
 125.09765625 529 l 2
 90.4209410782 529 60.0000609663 556.015784889 60.0000609663 591.508445267 c 0
 60.0000609663 625.928253023 88.2738214608 654 123.09765625 654 c 2
 676.09765625 654 l 2
 709.09765625 654 738.09765625 629 740.09765625 596 c 0
 740.240955018 594.280414786 740.311242099 592.572237648 740.311242099 590.878302176 c 0
 740.311242099 557.109222203 712.378071036 529 678.09765625 529 c 2
326.09765625 0 m 0
 310.09765625 0 294.09765625 6 282.09765625 18 c 0
 269.59765625 30.5 263.34765625 46.5 263.34765625 62.5 c 0
 263.34765625 78.5 269.59765625 94.5 282.09765625 107 c 2
 422.09765625 246 l 2
 432.10928573 256.01162948 436.592991779 268.317868685 436.592991779 280.392385243 c 0
 436.592991779 305.705390274 416.887601505 330 387.09765625 330 c 2
 267.09765625 330 l 2
 234.09765625 330 205.09765625 355 203.09765625 388 c 0
 202.954357482 389.76735147 202.884070401 391.518731633 202.884070401 393.251633853 c 0
 202.884070401 427.7975269 230.817241464 455 265.09765625 455 c 2
 656.09765625 455 l 2
 676.09765625 455 696.09765625 446 707.09765625 430 c 0
 715.559126891 418.421145438 719.657376815 405.057336946 719.657376815 391.94001728 c 0
 719.657376815 375.602755797 713.300163928 359.647848238 701.09765625 348 c 2
 370.09765625 18 l 2
 358.09765625 6 342.09765625 0 326.09765625 0 c 0
EndSplineSet
Validated: 524289
EndChar

StartChar: e
Encoding: 101 101 53
Width: 878
Flags: W
HStem: -0.0976302 21G<640.931 658.754> 0 21G<445 456.5> 529 125<238.293 332.8 713.385 802.703>
VStem: 60 125<301.003 638.704> 223 125<544.293 638.8> 389 125<231.054 637.713> 580 125<16.2866 520.615>
LayerCount: 2
Fore
SplineSet
451 0 m 0x7e
 439 0 427 4 416 11 c 2
 88 231 l 2
 70 242 60 262 60 283 c 2
 60 589 l 2
 60 623 85 652 118 654 c 0
 119.209490713 654.065377876 120.411501458 654.097630186 121.60522884 654.097630186 c 0
 156.92927929 654.097630186 185 625.855887164 185 592 c 2
 185 342 l 2
 185 326 193 311 207 301 c 2
 312 231 l 2
 320.796092535 225.13593831 330.373712786 222.469035458 339.691286494 222.469035458 c 0
 365.330135896 222.469035458 389 242.661930345 389 272 c 2
 389 589 l 2
 389 623 414 652 447 654 c 0
 448.176801774 654.065377876 449.348260715 654.097630186 450.513468635 654.097630186 c 0
 484.9935886 654.097630186 514 625.855887164 514 592 c 2
 514 65 l 2
 514 42 503 21 484 9 c 0
 474 3 462 0 451 0 c 0x7e
348 592 m 0
 348 557 320 529 286 529 c 0
 251 529 223 557 223 592 c 0
 223 626 251 654 286 654 c 0
 320 654 348 626 348 592 c 0
638 0 m 0
 605 2 580 31 580 65 c 2
 580 592 l 2
 580 626 608 654 642 654 c 2
 753 654 l 2
 787.75544157 654 818.097595284 627.983844816 818.097595284 592.396708324 c 0
 818.097595284 557.071746977 789.823834789 529 755 529 c 2
 754 529 l 2
 727 529 705 507 705 480 c 2
 705 62 l 2
 705 28.1441128362 675.9935886 -0.0976301856548 641.513468635 -0.0976301856548 c 0xbe
 640.348260715 -0.0976301856548 639.176801774 -0.0653778763541 638 0 c 0
EndSplineSet
Validated: 524289
EndChar

StartChar: f
Encoding: 102 102 54
Width: 906
Flags: W
HStem: 0 125<329.232 830.139> 329 125<421.641 829.909> 529 125<493.293 587.8>
VStem: 478 125<544.293 638.8>
LayerCount: 2
Fore
SplineSet
541 529 m 0
 506 529 478 557 478 592 c 0
 478 626 506 654 541 654 c 0
 575 654 603 626 603 592 c 0
 603 557 575 529 541 529 c 0
60 62 m 0
 60 77 65 92 76 104 c 2
 365 432 l 2
 377 446 394 454 412 454 c 2
 782 454 l 2
 815.737304435 454 846.100830129 426.915822292 846.100830129 391.376317494 c 0
 846.100830129 357.009113048 818.784963471 329 784 329 c 2
 463 329 l 2
 449 329 435 323 426 312 c 2
 333 207 l 2
 324.505189939 197.291645644 320.70457847 185.926515314 320.70457847 174.80348165 c 0
 320.70457847 149.263548121 340.742215092 125 370 125 c 2
 782 125 l 2
 815.818296632 125 846.100830129 98.9142977741 846.100830129 63.2784433965 c 0
 846.100830129 28.0091130479 818.784963471 0 784 0 c 2
 125 0 l 2
 102 0 80 11 69 31 c 0
 63 41 60 52 60 62 c 0
EndSplineSet
Validated: 524289
EndChar

StartChar: g
Encoding: 103 103 55
Width: 829
Flags: W
HStem: 0 125<193.385 286.139> 349 125<289.293 383.8> 529 125<290.976 557.399>
VStem: 60 125<133.385 637.812> 274 125<364.2 458.707>
LayerCount: 2
Fore
SplineSet
240 0 m 2
 123 0 l 2
 88 0 60 28 60 62 c 2
 60 589 l 2
 60 623 85 652 119 654 c 0
 120.176801774 654.065377876 121.347192149 654.097630186 122.510332795 654.097630186 c 0
 156.92927929 654.097630186 185 625.855887164 185 592 c 2
 185 174 l 2
 185 147 207 125 234 125 c 2
 238 125 l 2
 271.818296632 125 302.100830129 98.9142977741 302.100830129 63.2784433965 c 0
 302.100830129 28.0091130479 274.784963471 0 240 0 c 2
411 0 m 0
 401 0 390 3 380 8 c 0
 359.584054212 19.5690359465 348.430571589 40.863658216 348.430571589 62.7439394265 c 0
 348.430571589 73.0154107302 350.88850442 83.4159457879 356 93 c 2
 560 456 l 2
 564.194608044 463.690114747 566.108416894 471.760362694 566.108416894 479.615966384 c 0
 566.108416894 505.470512709 545.377750132 529 517 529 c 2
 339 529 l 2
 306 529 277 554 275 587 c 0
 274.856701232 588.76735147 274.786414151 590.518731633 274.786414151 592.251633853 c 0
 274.786414151 626.7975269 302.719585214 654 337 654 c 2
 705 654 l 2
 723 654 740 648 752 635 c 0
 763.975610663 623.024389337 769.856073169 607.463397406 769.856073169 591.751994617 c 0
 769.856073169 581.224396773 767.215853069 570.629267205 762 561 c 2
 465 32 l 2
 454 12 433 0 411 0 c 0
337 349 m 0
 302 349 274 377 274 411 c 0
 274 446 302 474 337 474 c 0
 371 474 399 446 399 411 c 0
 399 377 371 349 337 349 c 0
EndSplineSet
Validated: 524289
EndChar

StartChar: h
Encoding: 104 104 56
Width: 843
Flags: W
HStem: 0 125<75.9617 550.183> 265 125<255.3 522.098> 529 125<75.3008 767.807>
LayerCount: 2
Fore
SplineSet
720.100585938 529 m 2
 122.100585938 529 l 2
 88.1005859375 529 60.1005859375 557 60.1005859375 592 c 0
 60.1005859375 626 88.1005859375 654 122.100585938 654 c 2
 720.100585938 654 l 2
 755.100585938 654 783.100585938 626 783.100585938 592 c 0
 783.100585938 557 755.100585938 529 720.100585938 529 c 2
718.100585938 0 m 2
 124.100585938 0 l 2
 90.2822893057 0 59.9997558085 26.0857022259 59.9997558085 61.7215566035 c 0
 59.9997558085 96.9908869521 87.3156224666 125 122.100585938 125 c 2
 510.100585938 125 l 2
 538.668017216 125 558.650589797 148.608361415 558.650589797 174.208730325 c 0
 558.650589797 183.557754581 555.985624704 193.172441851 550.100585938 202 c 2
 522.100585938 243 l 2
 513.100585938 256 498.100585938 265 482.100585938 265 c 2
 304.100585938 265 l 2
 269.402214937 265 239.002955752 290.992579917 239.002955752 326.513468635 c 0
 239.002955752 360.9935886 267.244698774 390 301.100585938 390 c 2
 541.100585938 390 l 2
 562.100585938 390 581.100585938 379 593.100585938 362 c 2
 772.100585938 98 l 2
 779.301725541 87.1982905948 782.856711205 74.9786324353 782.856711205 62.79971794 c 0
 782.856711205 47.9186610065 777.549232658 33.0984330453 767.100585938 21 c 0
 755.100585938 7 737.100585938 0 718.100585938 0 c 2
EndSplineSet
Validated: 524289
EndChar

StartChar: i
Encoding: 105 105 57
Width: 584
Flags: W
HStem: -0.0976302 21G<461.026 478.817> 366 125<223.298 317.804> 529 125<75.5696 390.713>
VStem: 208.098 125<381.293 475.8> 399.098 125<16.1882 520.615>
LayerCount: 2
Fore
SplineSet
458.09765625 0 m 0
 424.09765625 2 399.09765625 31 399.09765625 65 c 2
 399.09765625 480 l 2
 399.09765625 507 377.09765625 529 350.09765625 529 c 2
 125.09765625 529 l 2
 91.3262586988 529 60.0000609663 555.016155184 60.0000609663 590.603291676 c 0
 60.0000609663 625.928253023 88.2738214608 654 123.09765625 654 c 2
 462.09765625 654 l 2
 496.09765625 654 524.09765625 626 524.09765625 592 c 2
 524.09765625 62 l 2
 524.09765625 28.1441128362 496.02693554 -0.0976301856548 461.607989045 -0.0976301856548 c 0
 460.444848399 -0.0976301856548 459.274458024 -0.0653778763541 458.09765625 0 c 0
333.09765625 429 m 0
 333.09765625 394 305.09765625 366 270.09765625 366 c 0
 236.09765625 366 208.09765625 394 208.09765625 429 c 0
 208.09765625 463 236.09765625 491 270.09765625 491 c 0
 305.09765625 491 333.09765625 463 333.09765625 429 c 0
EndSplineSet
Validated: 524289
EndChar

StartChar: j
Encoding: 106 106 58
Width: 839
Flags: W
HStem: 0 125<76.4001 359.785> 330 125<76.4001 466.146> 529 125<392.636 762.795>
VStem: 376 403.195<545.908 637.733>
LayerCount: 2
Fore
SplineSet
716.09765625 529 m 2
 441.09765625 529 l 2
 407.405531184 529 376.000060966 556.015784889 376.000060966 591.508445267 c 0
 376.000060966 625.928253023 404.273821461 654 439.09765625 654 c 2
 714.09765625 654 l 2
 748.794841858 654 779.195251534 628.007954592 779.195251534 592.488422247 c 0
 779.195251534 558.007471877 750.921491039 529 716.09765625 529 c 2
364.09765625 0 m 2
 125.09765625 0 l 2
 92.098279414 0 60.0000609663 26.0161551841 60.0000609663 61.6032916757 c 0
 60.0000609663 96.9282530225 88.2738214608 125 123.09765625 125 c 2
 318.09765625 125 l 2
 331.09765625 125 344.09765625 130 353.09765625 139 c 2
 460.09765625 246 l 2
 470.10928573 256.01162948 474.592991779 268.317868685 474.592991779 280.392385243 c 0
 474.592991779 305.705390274 454.887601505 330 425.09765625 330 c 2
 125.09765625 330 l 2
 92.098279414 330 60.0000609663 356.016155184 60.0000609663 391.603291676 c 0
 60.0000609663 426.928253023 88.2738214608 455 123.09765625 455 c 2
 694.09765625 455 l 2
 714.09765625 455 734.09765625 446 746.09765625 430 c 0
 754.42108509 418.610044746 758.330586628 405.492900547 758.330586628 392.582199499 c 0
 758.330586628 376.021474211 751.898077006 359.800420756 740.09765625 348 c 2
 409.09765625 18 l 2
 397.09765625 7 381.09765625 0 364.09765625 0 c 2
EndSplineSet
Validated: 524289
EndChar

StartChar: k
Encoding: 107 107 59
Width: 793
Flags: W
HStem: 0 125<75.4141 523.921> 529 125<76.19 599.829>
VStem: 608.214 125<15.2956 520.615>
LayerCount: 2
Fore
SplineSet
666.213867188 0 m 0
 633.213867188 2 608.213867188 31 608.213867188 65 c 2
 608.213867188 480 l 2
 608.213867188 507 586.213867188 529 559.213867188 529 c 2
 124.213867188 529 l 2
 91.2138671875 529 62.2138671875 554 60.2138671875 587 c 0
 60.0705684197 588.76735147 60.0002813385 590.518731633 60.0002813385 592.251633853 c 0
 60.0002813385 626.7975269 87.9334524013 654 122.213867188 654 c 2
 671.213867188 654 l 2
 705.213867188 654 733.213867188 626 733.213867188 592 c 2
 733.213867188 62 l 2
 733.213867188 28.1441128362 705.143146478 -0.0976301856548 669.819096028 -0.0976301856548 c 0
 668.625368646 -0.0976301856548 667.4233579 -0.0653778763541 666.213867188 0 c 0
476.213867188 0 m 2
 122.213867188 0 l 2
 88.2138671875 0 60.2138671875 28 60.2138671875 62 c 0
 60.2138671875 97 88.2138671875 125 122.213867188 125 c 2
 476.213867188 125 l 2
 511.213867188 125 539.213867188 97 539.213867188 62 c 0
 539.213867188 28 511.213867188 0 476.213867188 0 c 2
EndSplineSet
Validated: 524289
EndChar

StartChar: l
Encoding: 108 108 60
Width: 584
Flags: W
HStem: 0 125<76.19 390.776> 163 125<75.4141 169.921> 634.098 20G<460.145 477.967> 634.098 20G<460.145 477.967>
VStem: 60.2139 125<178.2 272.707> 399.214 125<133.385 637.713>
LayerCount: 2
Fore
SplineSet
461.213867188 0 m 2xec
 124.213867188 0 l 2
 91.2138671875 0 62.2138671875 25 60.2138671875 58 c 0
 60.0705684197 59.7673514698 60.0002813385 61.5187316331 60.0002813385 63.251633853 c 0
 60.0002813385 97.7975269002 87.9334524013 125 122.213867188 125 c 2
 349.213867188 125 l 2
 377.213867188 125 399.213867188 147 399.213867188 174 c 2
 399.213867188 589 l 2
 399.213867188 623 424.213867188 652 457.213867188 654 c 0
 458.390668962 654.065377876 459.562127903 654.097630186 460.727335822 654.097630186 c 0
 495.207455787 654.097630186 524.213867188 625.855887164 524.213867188 592 c 2
 524.213867188 62 l 2
 524.213867188 28 496.213867188 0 461.213867188 0 c 2xec
185.213867188 225 m 0
 185.213867188 191 157.213867188 163 122.213867188 163 c 0
 88.2138671875 163 60.2138671875 191 60.2138671875 225 c 0
 60.2138671875 260 88.2138671875 288 122.213867188 288 c 0
 157.213867188 288 185.213867188 260 185.213867188 225 c 0
EndSplineSet
Validated: 524289
EndChar

StartChar: m
Encoding: 109 109 61
Width: 722
Flags: W
HStem: 0 125<268.529 646.49> 529 125<553.128 647.634>
VStem: 537.928 125<544.293 638.8>
LayerCount: 2
Fore
SplineSet
599.927734375 529 m 0
 565.927734375 529 537.927734375 557 537.927734375 592 c 0
 537.927734375 626 565.927734375 654 599.927734375 654 c 0
 634.927734375 654 662.927734375 626 662.927734375 592 c 0
 662.927734375 557 634.927734375 529 599.927734375 529 c 0
122.927734375 0 m 2
 110.927734375 0 98.927734375 3 89.927734375 9 c 0
 69.7738517906 21.7641256368 60.0000987775 42.2005209567 60.0000987775 62.7294789818 c 0
 60.0000987775 72.7588383516 62.332879581 82.8102904121 66.927734375 92 c 2
 349.927734375 618 l 2
 360.989413682 639.432003657 382.566469863 651.304573792 404.745460297 651.304573792 c 0
 414.646937674 651.304573792 424.668383075 648.938320693 433.927734375 644 c 0
 455.359738032 632.246965736 467.232308167 610.456526274 467.232308167 588.211676149 c 0
 467.232308167 578.280796701 464.866055068 568.2593513 459.927734375 559 c 2
 265.927734375 198 l 2
 261.733126331 190.309885253 259.819317481 182.239637306 259.819317481 174.384033616 c 0
 259.819317481 148.529487291 280.549984243 125 308.927734375 125 c 2
 599.927734375 125 l 2
 626.927734375 125 651.927734375 109 659.927734375 83 c 0
 661.928709067 76.3813914027 662.863556615 69.8338579484 662.863556615 63.4923258883 c 0
 662.863556615 28.6339781589 634.616968038 0 599.927734375 0 c 2
 122.927734375 0 l 2
EndSplineSet
Validated: 524289
EndChar

StartChar: n
Encoding: 110 110 62
Width: 774
Flags: W
HStem: -0.0976302 21G<634.733 652.992> 0 21G<115 131> 322 333<75.2933 169.8>
VStem: 60 125<337.293 639.8> 589 125<15.2956 364.048>
LayerCount: 2
Fore
SplineSet
123 0 m 0x78
 107 0 91 6 78 18 c 0
 66 30.5 60 46.5 60 62.5 c 0
 60 78.5 66 94.5 78 107 c 2
 607 638 l 2
 619.362345554 649.800420756 635.51380485 656.232930378 651.905716265 656.232930378 c 0
 664.68481043 656.232930378 677.610044746 652.32342884 689 644 c 0
 705 632 714 612 714 592 c 2
 714 65 l 2
 714 31 689 2 656 0 c 0x78
 654.790509287 -0.0653778763541 653.588498542 -0.0976301856548 652.39477116 -0.0976301856548 c 0xb8
 617.07072071 -0.0976301856548 589 28.1441128362 589 62 c 2
 589 323 l 2
 589 352.789945255 564.705390274 372.495335529 539.392385243 372.495335529 c 0
 527.317868685 372.495335529 515.01162948 368.01162948 505 358 c 2
 167 18 l 2
 155 6 139 0 123 0 c 0x78
123 322 m 0
 88 322 60 350 60 385 c 2
 60 593 l 2
 60 627 88 655 123 655 c 0
 157 655 185 627 185 593 c 2
 185 385 l 2
 185 350 157 322 123 322 c 0
EndSplineSet
Validated: 524289
EndChar

StartChar: o
Encoding: 111 111 63
Width: 863
Flags: W
HStem: 0 125<247.584 615.029> 633.675 20G<325.348 341.521 521.197 537.554> 633.675 20G<325.348 341.521 521.197 537.554>
LayerCount: 2
Fore
SplineSet
738.306640625 0 m 2xc0
 124.306640625 0 l 2
 108.306640625 0 92.306640625 6 80.306640625 17 c 0
 66.6630618905 29.279220861 60.0000046817 45.7467546374 60.0000046817 62.5930295275 c 0
 60.0000046817 70.4415582779 61.4462510555 78.3722944814 64.306640625 86 c 2
 280.306640625 615 l 2
 290.136978028 639.197753607 313.118896906 653.674773079 337.577878703 653.674773079 c 0
 345.464354679 653.674773079 353.504394232 652.169662597 361.306640625 649 c 0
 385.504394232 639.169662597 399.981413704 616.187743719 399.981413704 591.728761922 c 0
 399.981413704 583.842285946 398.476303222 575.802246393 395.306640625 568 c 2
 243.306640625 193 l 2
 240.798060028 186.632064639 239.629995159 180.189656181 239.629995159 173.938636369 c 0
 239.629995159 147.795537504 260.060511463 125 288.306640625 125 c 2
 574.306640625 125 l 2
 602.722856204 125 623.888219223 148.07089451 623.888219223 174.4112648 c 0
 623.888219223 180.514094329 622.752046267 186.792431832 620.306640625 193 c 2
 467.306640625 568 l 2
 464.136978028 575.802246393 462.631867546 583.842285946 462.631867546 591.728761922 c 0
 462.631867546 616.187743719 477.108887018 639.169662597 501.306640625 649 c 0
 509.108887018 652.169662597 517.20837486 653.674773079 525.184758029 653.674773079 c 0
 549.922576453 653.674773079 573.476303222 639.197753607 583.306640625 615 c 2
 798.306640625 86 l 2
 801.52898603 78.266371027 803.08996985 70.2212367566 803.08996985 62.2661082544 c 0
 803.08996985 45.5338507028 796.184184355 29.1997782702 783.306640625 17 c 0
 771.306640625 6 755.306640625 0 738.306640625 0 c 2xc0
EndSplineSet
Validated: 524289
EndChar

StartChar: p
Encoding: 112 112 64
Width: 574
Flags: W
HStem: 0 21G<443.5 456.5> 529 125<238.293 332.8>
VStem: 60 125<361.641 637.812> 223 125<544.293 638.8> 389 125<268.958 638.704>
LayerCount: 2
Fore
SplineSet
451 0 m 0
 436 0 422 5 410 16 c 2
 81 305 l 2
 68 317 60 334 60 352 c 2
 60 589 l 2
 60 623 85 652 119 654 c 0
 120.176801774 654.065377876 121.347192149 654.097630186 122.510332795 654.097630186 c 0
 156.92927929 654.097630186 185 625.855887164 185 592 c 2
 185 403 l 2
 185 388 191 375 202 366 c 2
 307 273 l 2
 316.836935538 264.392681404 328.37482363 260.51023101 339.638339757 260.51023101 c 0
 365.015555355 260.51023101 389 280.21838213 389 310 c 2
 389 589 l 2
 389 623 414 652 447 654 c 0
 448.209490713 654.065377876 449.411501458 654.097630186 450.60522884 654.097630186 c 0
 485.92927929 654.097630186 514 625.855887164 514 592 c 2
 514 65 l 2
 514 42 503 20 483 9 c 0
 473 3 462 0 451 0 c 0
348 592 m 0
 348 557 320 529 286 529 c 0
 251 529 223 557 223 592 c 0
 223 626 251 654 286 654 c 0
 320 654 348 626 348 592 c 0
EndSplineSet
Validated: 524289
EndChar

StartChar: q
Encoding: 113 113 65
Width: 779
Flags: W
HStem: 0 125<506.188 703.024> 331 125<609.293 703.8> 529 125<193.385 703.024>
VStem: 60 125<403.766 520.615> 594 125<346.293 440.8>
LayerCount: 2
Fore
SplineSet
655 0 m 2
 506 0 l 2
 492 0 477 5 466 15 c 2
 82 347 l 2
 68 358 60 376 60 394 c 2
 60 592 l 2
 60 626 88 654 122 654 c 2
 655 654 l 2
 688 654 717 629 719 596 c 0
 719.143298768 594.23264853 719.213585849 592.481268367 719.213585849 590.748366147 c 0
 719.213585849 556.2024731 691.280414786 529 657 529 c 2
 234 529 l 2
 207 529 185 507 185 480 c 2
 185 445 l 2
 185 431 191 417 202 408 c 2
 516 137 l 2
 525 129 536 125 548 125 c 2
 657 125 l 2
 691.280414786 125 719.213585849 97.7975269002 719.213585849 63.251633853 c 0
 719.213585849 61.5187316331 719.143298768 59.7673514698 719 58 c 0
 717 25 688 0 655 0 c 2
657 331 m 0
 622 331 594 359 594 394 c 0
 594 428 622 456 657 456 c 0
 691 456 719 428 719 394 c 0
 719 359 691 331 657 331 c 0
EndSplineSet
Validated: 524289
EndChar

StartChar: r
Encoding: 114 114 66
Width: 776
Flags: W
HStem: 0 21G<115.098 131.098> 529 125<75.3947 424.146>
LayerCount: 2
Fore
SplineSet
123.09765625 0 m 0
 107.09765625 0 91.09765625 6 78.09765625 18 c 0
 66.09765625 30.5 60.09765625 46.5 60.09765625 62.5 c 0
 60.09765625 78.5 66.09765625 94.5 78.09765625 107 c 2
 418.09765625 445 l 2
 428.10928573 455.01162948 432.592991779 467.317868685 432.592991779 479.392385243 c 0
 432.592991779 504.705390274 412.887601505 529 383.09765625 529 c 2
 125.09765625 529 l 2
 90.3422146798 529 60.0000609663 555.016155184 60.0000609663 590.603291676 c 0
 60.0000609663 625.928253023 88.2738214608 654 123.09765625 654 c 2
 652.09765625 654 l 2
 672.09765625 654 692.09765625 645 704.09765625 629 c 0
 712.42108509 617.610044746 716.330586628 604.68481043 716.330586628 591.905716265 c 0
 716.330586628 575.51380485 709.898077006 559.362345554 698.09765625 547 c 2
 167.09765625 18 l 2
 154.09765625 6 139.09765625 0 123.09765625 0 c 0
EndSplineSet
Validated: 524289
EndChar

StartChar: s
Encoding: 115 115 67
Width: 763
Flags: W
HStem: 0 125<75.2003 377.707> 633.891 20G<113.987 130.615 639.008 657.267> 633.891 20G<113.987 130.615 639.008 657.267>
VStem: 60 333<15.2003 109.707> 578 125<295.219 638.704>
LayerCount: 2
Fore
SplineSet
641 0 m 0xd8
 624 0 608 7 596 19 c 2
 79 546 l 2
 66.7531631303 558.779308038 60.1768371609 575.527973706 60.1768371609 592.169829194 c 0
 60.1768371609 606.781976702 65.2468368697 621.311779206 76 633 c 0
 88.339532011 646.881973512 105.437315592 653.890916979 122.536381034 653.890916979 c 0
 138.694457778 653.890916979 154.853679178 647.632173655 167 635 c 2
 494 302 l 2
 504.174658856 291.497126342 516.719266748 286.811400315 528.982054289 286.811400315 c 0
 554.081346318 286.811400315 578 306.44145128 578 336 c 2
 578 589 l 2
 578 623 603 652 636 654 c 0
 637.209490713 654.065377876 638.411501458 654.097630186 639.60522884 654.097630186 c 0
 674.92927929 654.097630186 703 625.855887164 703 592 c 2
 703 65 l 2
 703 42 692 20 672 9 c 0
 662 3 651 0 641 0 c 0xd8
330 0 m 2
 122 0 l 2
 88 0 60 28 60 62 c 0
 60 97 88 125 122 125 c 2
 330 125 l 2
 365 125 393 97 393 62 c 0
 393 28 365 0 330 0 c 2
EndSplineSet
Validated: 524289
EndChar

StartChar: t
Encoding: 116 116 68
Width: 837
Flags: W
HStem: 0 125<288.611 487.656> 635 20G<401.75 436.25>
VStem: 356.75 125<225.2 639.707>
LayerCount: 2
Fore
SplineSet
418.75 210 m 0
 384.75 210 356.75 238 356.75 272 c 2
 356.75 592 l 2
 356.75 627 384.75 655 418.75 655 c 0
 453.75 655 481.75 627 481.75 592 c 2
 481.75 272 l 2
 481.75 238 453.75 210 418.75 210 c 0
493.75 0 m 2
 336.75 0 l 2
 302.931703368 0 272.649169871 26.0857022259 272.649169871 61.7215566035 c 0
 272.649169871 96.9908869521 299.965036529 125 334.75 125 c 2
 446.75 125 l 2
 459.75 125 472.75 130 481.75 139 c 2
 670.75 328 l 2
 683.268518519 340.518518519 699.264403292 346.777777778 715.165841081 346.777777778 c 0
 732.290466392 346.777777778 749.305555556 339.518518519 761.75 325 c 0
 772.033622917 313.314064867 777.073300365 298.787659271 777.073300365 284.178401509 c 0
 777.073300365 267.533725386 770.531502272 250.781502272 757.75 238 c 2
 537.75 18 l 2
 525.75 7 509.75 0 493.75 0 c 2
184.75 150 m 0
 168.75 150 152.75 156 140.75 168 c 2
 78.75 231 l 2
 66.25 243 60 259 60 275 c 0
 60 291 66.25 307 78.75 319 c 0
 90.75 331 106.75 337 122.75 337 c 0
 138.75 337 154.75 331 166.75 319 c 2
 228.75 257 l 2
 241.25 244.5 247.5 228.5 247.5 212.5 c 0
 247.5 196.5 241.25 180.5 228.75 168 c 0
 216.75 156 200.75 150 184.75 150 c 0
EndSplineSet
Validated: 524289
EndChar

StartChar: u
Encoding: 117 117 69
Width: 863
Flags: W
HStem: 0 125<193.385 585.698> 331 125<506.2 600.707> 528 125<481.438 669.615>
VStem: 60 125<133.385 637.812> 491 125<346.293 440.8> 678 125<15.2956 519.615>
LayerCount: 2
Fore
SplineSet
539 0 m 2
 123 0 l 2
 88 0 60 28 60 62 c 2
 60 589 l 2
 60 623 85 652 119 654 c 0
 120.176801774 654.065377876 121.347192149 654.097630186 122.510332795 654.097630186 c 0
 156.92927929 654.097630186 185 625.855887164 185 592 c 2
 185 174 l 2
 185 147 207 125 234 125 c 2
 537 125 l 2
 569.999376836 125 602.097595284 98.9838448159 602.097595284 63.3967083243 c 0
 602.097595284 28.0717469775 573.823834789 0 539 0 c 2
736 0 m 0
 703 2 678 31 678 65 c 2
 678 479 l 2
 678 506 656 528 629 528 c 2
 524 528 l 2
 511 528 499 523 489 514 c 2
 368 392 l 2
 356 380 340 374 324 374 c 0
 308 374 292 380 280 392 c 0
 268 404.5 262 420.5 262 436.5 c 0
 262 452.5 268 468.5 280 481 c 2
 434 635 l 2
 445 646 461 653 478 653 c 2
 741 653 l 2
 775 653 803 625 803 590 c 2
 803 62 l 2
 803 28.1441128362 774.92927929 -0.0976301856548 739.60522884 -0.0976301856548 c 0
 738.411501458 -0.0976301856548 737.209490713 -0.0653778763541 736 0 c 0
616 394 m 0
 616 359 588 331 553 331 c 0
 519 331 491 359 491 394 c 0
 491 428 519 456 553 456 c 0
 588 456 616 428 616 394 c 0
EndSplineSet
Validated: 524289
EndChar

StartChar: v
Encoding: 118 118 70
Width: 580
Flags: W
HStem: -0.0976302 21G<341.809 359.6> 529 125<411.08 505.587> 633.919 20G<113.653 130.28>
VStem: 279.88 125<16.2866 368.719> 395.88 125<544.293 638.8>
LayerCount: 2
Fore
SplineSet
338.879882812 0 m 0xb0
 305.879882812 2 279.879882812 31 279.879882812 65 c 2
 279.879882812 328 l 2
 279.879882812 341 274.879882812 354 265.879882812 363 c 2
 79.8798828125 546 l 2
 66.8403200974 558.496247602 59.9997749376 575.420364886 59.9997749376 592.28165862 c 0
 59.9997749376 606.45446154 64.8328153013 620.582877828 74.8798828125 632 c 0
 87.4461726586 646.660671487 104.94720127 653.919234826 122.35890032 653.919234826 c 0
 138.201310662 653.919234826 153.969768069 647.910114744 165.879882812 636 c 2
 386.879882812 420 l 2
 398.879882812 408 404.879882812 392 404.879882812 375 c 2
 404.879882812 62 l 2
 404.879882812 28.1441128362 376.809162103 -0.0976301856548 342.390215608 -0.0976301856548 c 0
 341.227074961 -0.0976301856548 340.056684587 -0.0653778763541 338.879882812 0 c 0xb0
520.879882812 592 m 0xc8
 520.879882812 557 492.879882812 529 457.879882812 529 c 0
 423.879882812 529 395.879882812 557 395.879882812 592 c 0
 395.879882812 626 423.879882812 654 457.879882812 654 c 0
 492.879882812 654 520.879882812 626 520.879882812 592 c 0xc8
EndSplineSet
Validated: 524289
EndChar

StartChar: w
Encoding: 119 119 71
Width: 860
Flags: W
HStem: 5 125<332.976 666.615> 531 125<193.385 527.024 690.293 784.8>
VStem: 60 125<16.2866 522.615> 675 125<138.385 375.024 546.2 640.707>
LayerCount: 2
Fore
SplineSet
118 0 m 0
 85 2 60 31 60 65 c 2
 60 593 l 2
 60 628 88 656 122 656 c 2
 479 656 l 2
 512 656 541 631 543 598 c 0
 543.143298768 596.23264853 543.213585849 594.481268367 543.213585849 592.748366147 c 0
 543.213585849 558.2024731 515.280414786 531 481 531 c 2
 234 531 l 2
 207 531 185 509 185 482 c 2
 185 62 l 2
 185 28.1441128362 155.9935886 -0.0976301856548 121.513468635 -0.0976301856548 c 0
 120.348260715 -0.0976301856548 119.176801774 -0.0653778763541 118 0 c 0
738 531 m 0
 703 531 675 559 675 593 c 0
 675 628 703 656 738 656 c 0
 772 656 800 628 800 593 c 0
 800 559 772 531 738 531 c 0
738 5 m 2
 381 5 l 2
 348 5 319 30 317 63 c 0
 316.856701232 64.7195852138 316.786414151 66.4277623517 316.786414151 68.1216978238 c 0
 316.786414151 101.890777797 344.719585214 130 379 130 c 2
 626 130 l 2
 653 130 675 152 675 179 c 2
 675 327 l 2
 675 360 700 389 734 391 c 0
 735.719585214 391.143298768 737.425480736 391.213585849 739.115070947 391.213585849 c 0
 772.7975269 391.213585849 800 363.280414786 800 329 c 2
 800 67 l 2
 800 33 772 5 738 5 c 2
EndSplineSet
Validated: 524289
EndChar

StartChar: x
Encoding: 120 120 72
Width: 754
Flags: W
HStem: 0 125<330.245 424.752> 382.75 271.25<336.822 418.309>
VStem: 315.045 125<15.2003 109.707>
LayerCount: 2
Fore
SplineSet
123.044921875 0 m 0
 114.044921875 0 104.044921875 2 96.044921875 6 c 0
 73.5442945254 16.8874003305 59.9996816702 39.3649370655 59.9996816702 63.1082638933 c 0
 59.9996816702 72.0770530535 61.9323222055 81.2264540383 66.044921875 90 c 2
 321.044921875 619 l 2
 331.044921875 640 353.044921875 654 377.044921875 654 c 0
 401.044921875 654 423.044921875 640 434.044921875 619 c 2
 688.044921875 90 l 2
 692.275886939 80.9739411969 694.279163868 71.5500809411 694.279163868 62.3343294901 c 0
 694.279163868 38.8775654098 681.300927409 16.769034936 659.044921875 6 c 0
 650.300927409 1.76903493604 641.079571201 -0.234241992679 632.009204627 -0.234241992679 c 0
 608.922487285 -0.234241992679 586.813956811 12.7439944655 576.044921875 35 c 2
 422.044921875 355 l 2
 413.044921875 373.5 395.294921875 382.75 377.544921875 382.75 c 0
 359.794921875 382.75 342.044921875 373.5 333.044921875 355 c 2
 179.044921875 35 l 2
 168.044921875 13 146.044921875 0 123.044921875 0 c 0
377.044921875 0 m 0
 343.044921875 0 315.044921875 28 315.044921875 62 c 0
 315.044921875 97 343.044921875 125 377.044921875 125 c 0
 412.044921875 125 440.044921875 97 440.044921875 62 c 0
 440.044921875 28 412.044921875 0 377.044921875 0 c 0
EndSplineSet
Validated: 524289
EndChar

StartChar: y
Encoding: 121 121 73
Width: 872
Flags: W
HStem: 0 232<395.585 477.352> 349 125<391.227 485.733> 529 125<277.752 484.05>
VStem: 376.026 125<364.2 458.707>
LayerCount: 2
Fore
SplineSet
436.026367188 0 m 0
 414.026367188 0 394.026367188 12 383.026367188 31 c 2
 69.0263671875 560 l 2
 63.060270363 569.801444783 59.9998316054 581.0557186 59.9998316054 592.292404887 c 0
 59.9998316054 607.423646016 65.549362651 622.522995464 77.0263671875 634 c 0
 89.0263671875 647 106.026367188 654 124.026367188 654 c 2
 436.026367188 654 l 2
 469.026367188 654 498.026367188 629 500.026367188 596 c 0
 500.169665955 594.23264853 500.239953037 592.481268367 500.239953037 590.748366147 c 0
 500.239953037 556.2024731 472.306781974 529 438.026367188 529 c 2
 318.026367188 529 l 2
 289.358212448 529 269.22741674 505.664551978 269.22741674 480.033596568 c 0
 269.22741674 471.690397923 271.360444557 463.103970884 276.026367188 455 c 2
 394.026367188 256 l 2
 403.526367188 240 420.026367188 232 436.526367188 232 c 0
 453.026367188 232 469.526367188 240 479.026367188 256 c 2
 697.026367188 623 l 2
 708.28508741 642.868329805 729.193265015 653.964425627 750.455452646 653.964425627 c 0
 761.297907689 653.964425627 772.232419332 651.079002117 782.026367188 645 c 0
 801.894696993 633.741279777 812.990792814 612.833102173 812.990792814 591.570914542 c 0
 812.990792814 580.728459498 810.105369304 569.793947855 804.026367188 560 c 2
 490.026367188 31 l 2
 479.026367188 12 458.026367188 0 436.026367188 0 c 0
438.026367188 349 m 0
 404.026367188 349 376.026367188 377 376.026367188 411 c 0
 376.026367188 446 404.026367188 474 438.026367188 474 c 0
 473.026367188 474 501.026367188 446 501.026367188 411 c 0
 501.026367188 377 473.026367188 349 438.026367188 349 c 0
EndSplineSet
Validated: 524289
EndChar

StartChar: z
Encoding: 122 122 74
Width: 863
Flags: W
HStem: 1 125<193.385 585.698> 188 125<275.2 369.707> 528 125<481.438 669.615>
VStem: 60 125<134.385 306.812> 260 125<203.2 297.707> 678 125<15.2956 519.615>
LayerCount: 2
Fore
SplineSet
736 0 m 0
 703 2 678 31 678 65 c 2
 678 479 l 2
 678 506 656 528 629 528 c 2
 524 528 l 2
 511 528 499 523 489 514 c 2
 368 392 l 2
 356 380 340 374 324 374 c 0
 308 374 292 380 280 392 c 0
 268 404.5 262 420.5 262 436.5 c 0
 262 452.5 268 468.5 280 481 c 2
 434 635 l 2
 445 646 461 653 478 653 c 2
 741 653 l 2
 775 653 803 625 803 590 c 2
 803 62 l 2
 803 28.1441128362 774.92927929 -0.0976301856548 739.60522884 -0.0976301856548 c 0
 738.411501458 -0.0976301856548 737.209490713 -0.0653778763541 736 0 c 0
539 1 m 2
 123 1 l 2
 88 1 60 29 60 63 c 2
 60 258 l 2
 60 292 85 321 119 323 c 0
 120.176801774 323.065377876 121.347192149 323.097630186 122.510332795 323.097630186 c 0
 156.92927929 323.097630186 185 294.855887164 185 261 c 2
 185 175 l 2
 185 148 207 126 234 126 c 2
 537 126 l 2
 569.999376836 126 602.097595284 99.9838448159 602.097595284 64.3967083243 c 0
 602.097595284 29.0717469775 573.823834789 1 539 1 c 2
322 188 m 0
 288 188 260 216 260 250 c 0
 260 285 288 313 322 313 c 0
 357 313 385 285 385 250 c 0
 385 216 357 188 322 188 c 0
EndSplineSet
Validated: 524289
EndChar

StartChar: colon
Encoding: 58 58 76
Width: 582
Flags: W
HStem: 0 125<75.9617 290.183> 265 125<76.2996 262.098>
LayerCount: 2
Fore
SplineSet
458.100585938 0 m 2
 124.100585938 0 l 2
 90.2822893057 0 59.9997558085 26.0857022259 59.9997558085 61.7215566035 c 0
 59.9997558085 96.9908869521 87.3156224666 125 122.100585938 125 c 2
 250.100585938 125 l 2
 278.668017216 125 298.650589797 148.608361415 298.650589797 174.208730325 c 0
 298.650589797 183.557754581 295.985624704 193.172441851 290.100585938 202 c 2
 262.100585938 243 l 2
 253.100585938 256 238.100585938 265 222.100585938 265 c 2
 125.100585938 265 l 6
 90.4022149368 265 60.0029557518 290.992579917 60.0029557518 326.513468635 c 0
 60.0029557518 360.9935886 88.2446987737 390 122.100585938 390 c 6
 281.100585938 390 l 2
 302.100585938 390 321.100585938 379 333.100585938 362 c 2
 512.100585938 98 l 2
 519.301725541 87.1982905948 522.856711205 74.9786324353 522.856711205 62.79971794 c 0
 522.856711205 47.9186610065 517.549232658 33.0984330453 507.100585938 21 c 0
 495.100585938 7 477.100585938 0 458.100585938 0 c 2
EndSplineSet
Validated: 524289
EndChar

StartChar: semicolon
Encoding: 59 59 77
Width: 245
Flags: W
HStem: -1 366<75.2003 169.707> 449 206<75.2003 169.707>
VStem: 60 125<14.2003 349.707 464.2 639.707>
LayerCount: 2
Fore
SplineSet
122 -1 m 0
 88 -1 60 27 60 61 c 2
 60 302 l 6
 60 337 88 365 122 365 c 4
 157 365 185 337 185 302 c 6
 185 61 l 2
 185 27 157 -1 122 -1 c 0
122 449 m 4
 88 449 60 477 60 511 c 6
 60 592 l 2
 60 627 88 655 122 655 c 0
 157 655 185 627 185 592 c 2
 185 511 l 6
 185 477 157 449 122 449 c 4
EndSplineSet
Validated: 1
EndChar

StartChar: dollar
Encoding: 36 36 78
Width: 882
Flags: W
HStem: 0 21G<221.098 237.098> 331 125<75.2933 169.8 255.293 349.8> 529 125<75.3947 530.146>
VStem: 60 125<346.293 440.8> 240 125<346.293 440.8>
LayerCount: 2
Fore
SplineSet
123 331 m 0
 88 331 60 359 60 394 c 0
 60 428 88 456 123 456 c 0
 157 456 185 428 185 394 c 0
 185 359 157 331 123 331 c 0
303 331 m 4
 268 331 240 359 240 394 c 4
 240 428 268 456 303 456 c 4
 337 456 365 428 365 394 c 4
 365 359 337 331 303 331 c 4
229.09765625 0 m 0
 213.09765625 0 197.09765625 6 184.09765625 18 c 0
 172.09765625 30.5 166.09765625 46.5 166.09765625 62.5 c 0
 166.09765625 78.5 172.09765625 94.5 184.09765625 107 c 2
 524.09765625 445 l 2
 534.10928573 455.01162948 538.592991779 467.317868685 538.592991779 479.392385243 c 0
 538.592991779 504.705390274 518.887601505 529 489.09765625 529 c 2
 125.09765625 529 l 2
 90.3422146798 529 60.0000609663 555.016155184 60.0000609663 590.603291676 c 0
 60.0000609663 625.928253023 88.2738214608 654 123.09765625 654 c 2
 758.09765625 654 l 2
 778.09765625 654 798.09765625 645 810.09765625 629 c 0
 818.42108509 617.610044746 822.330586628 604.68481043 822.330586628 591.905716265 c 0
 822.330586628 575.51380485 815.898077006 559.362345554 804.09765625 547 c 2
 273.09765625 18 l 2
 260.09765625 6 245.09765625 0 229.09765625 0 c 0
EndSplineSet
Validated: 524289
EndChar
